<svg xmlns="http://www.w3.org/2000/svg" width="24" height="24" viewBox="0 0 24 24">
  <g id="icon_fullstar_24" transform="translate(740 -462)">
    <path id="패스_625" data-name="패스 625" d="M0,0H24V24H0Z" transform="translate(-740 462)" fill="rgba(0,0,0,0)"/>
    <g id="그룹_215" data-name="그룹 215" transform="translate(5 -9.199)">
      <path id="패스_604" data-name="패스 604" d="M17.563,21.56a1,1,0,0,1-.466-.115L12,18.765l-5.1,2.68a1,1,0,0,1-1.451-1.054l.974-5.676L2.3,10.7A1,1,0,0,1,2.856,8.99l5.7-.828L11.1,3A1.04,1.04,0,0,1,12.9,3l2.549,5.164,5.7.828A1,1,0,0,1,21.7,10.7l-4.124,4.02.974,5.676a1,1,0,0,1-.985,1.169Z" transform="translate(-745 470.713)" fill="#336af8"/>
    </g>
  </g>
</svg>
