<svg xmlns="http://www.w3.org/2000/svg" width="24" height="24.021" viewBox="0 0 36 36.021">
  <g id="icon_color_best_36" transform="translate(-5732 386.021)">
    <rect id="사각형_24" data-name="사각형 24" width="36" height="36" transform="translate(5732 -386)" fill="rgba(255,255,255,0)"/>
    <g id="그룹_39" data-name="그룹 39" transform="translate(5737.117 -386)">
      <path id="패스_596" data-name="패스 596" d="M-222.917,1240.54l4.2,14.623a.678.678,0,0,1-.821.813l-2.688-.513a1.792,1.792,0,0,0-1.473.368l-2.047,1.692a.728.728,0,0,1-1.155-.323l-4.2-14.616Z" transform="translate(242.752 -1222.582)" fill="#6200ee" fill-rule="evenodd"/>
      <path id="패스_621" data-name="패스 621" d="M.527.016,3.636.108a.558.558,0,0,1,.543.525l.01.322a.482.482,0,0,1-.512.493L.569,1.356A.558.558,0,0,1,.026.831L.016.509A.482.482,0,0,1,.527.016Z" transform="translate(16.066 15.38) rotate(150)" fill="#f05542"/>
      <path id="패스_598" data-name="패스 598" d="M-233.106,1240.54l-4.2,14.623a.678.678,0,0,0,.821.813l2.688-.513a1.792,1.792,0,0,1,1.473.368l2.047,1.692a.728.728,0,0,0,1.155-.323l4.2-14.616Z" transform="translate(240.185 -1222.582)" fill="#6200ee" fill-rule="evenodd"/>
      <path id="패스_601" data-name="패스 601" d="M20.727,19.323c-1.158,1.08-.923,2.954-2.406,3.6s-2.867-.726-4.5-.59S11.083,24.05,9.5,23.658s-1.689-2.276-3.027-3.149S3.2,20.185,2.264,18.938s.279-2.761-.142-4.233-2.28-2.213-2.134-3.733S2.1,9.018,2.8,7.635s-.215-3.067.943-4.147,2.964-.233,4.447-.88S10.138.123,11.768-.012s2.424,1.6,4,1.989,3.2-.741,4.54.132.75,2.68,1.686,3.928,2.957,1.35,3.377,2.822-1.275,2.509-1.42,4.028,1.328,2.809.634,4.192S21.886,18.243,20.727,19.323Z" transform="translate(0.631 0) rotate(1.42)" fill="#70efde"/>
      <path id="패스_602" data-name="패스 602" d="M16.286,15.183c-.91.849-.725,2.321-1.891,2.829s-2.253-.571-3.533-.464S8.708,18.9,7.468,18.589,6.14,16.8,5.089,16.115s-2.575-.255-3.31-1.235S2,12.71,1.668,11.553-.124,9.815-.009,8.621,1.654,7.085,2.2,6,2.029,3.589,2.94,2.74s2.329-.183,3.494-.691S7.966.1,9.246-.01s1.9,1.255,3.146,1.563,2.516-.582,3.567.1.59,2.106,1.325,3.086S19.607,5.8,19.937,6.96s-1,1.971-1.116,3.165,1.043,2.207.5,3.294-2.124.914-3.034,1.763Z" transform="translate(3.29 2.605) rotate(1.42)" fill="#c8fff4"/>
      <g id="그룹_22" data-name="그룹 22" transform="translate(7.472 7.541)">
        <path id="패스_606" data-name="패스 606" d="M17.167,5.963a.511.511,0,0,0-.419-.329l-2.959-.4-1.323-2.5A.516.516,0,0,0,12,2.486v7.88l2.647,1.3a.538.538,0,0,0,.7-.2.456.456,0,0,0,.052-.307l-.506-2.748L17.036,6.46A.462.462,0,0,0,17.167,5.963Z" transform="translate(-6.808 -2.485)" fill="#dbb2ff"/>
        <g id="그룹_18" data-name="그룹 18" transform="translate(0 0.009)">
          <path id="패스_607" data-name="패스 607" d="M6.726,2.743,5.4,5.242l-2.959.4a.534.534,0,0,0-.3.141.461.461,0,0,0,.009.685L4.3,8.415l-.506,2.748a.456.456,0,0,0,.052.307.538.538,0,0,0,.7.2l2.647-1.3V2.5A.543.543,0,0,0,6.726,2.743Z" transform="translate(-2 -2.503)" fill="#985eff"/>
        </g>
      </g>
    </g>
  </g>
</svg>
