<svg xmlns="http://www.w3.org/2000/svg" width="24" height="24" viewBox="0 0 36 36">
  <g id="icon_color_fire_36" transform="translate(-5732 616)">
    <rect id="사각형_28" data-name="사각형 28" width="36" height="36" transform="translate(5732 -616)" fill="rgba(255,255,255,0)"/>
    <path id="path22" d="M-14.641-6.489a16.882,16.882,0,0,0-.852-5.327c-.377,4.892-2.731,7.4-5.191,6.234-2.3-1.1-.751-5.371-.637-7.411.193-3.458-.01-7.415-5.679-10.706,2.356,4.993.273,8.093-1.912,8.283-2.424.209-4.643-2.307-3.823-6.392-2.653,2.166-2.731,5.811-1.912,8.17.854,2.458-.034,4.5-2.116,4.727-2.326.254-3.619-2.76-2.427-7.564A16.389,16.389,0,0,0-42.5-6.489c0,8.523,6.236,15.431,13.93,15.431s13.93-6.909,13.93-15.431" transform="translate(5778.5 -590.302)" fill="#6200ee"/>
    <path id="path34" d="M-8.05-6.644A7.951,7.951,0,0,0-9.518-11.21a2.877,2.877,0,0,1-3.677,2.822c-1.925-.641-1.409-1.743-1.905-4.026s-2.4-3.868-5.221-4.565c2.058,4.818-1.14,6.594-2.817,6.912-1.712.324-3.432,0-3.629-3.049A8.42,8.42,0,0,0-30-6.644c0,5.042,4.914,9.13,10.975,9.13S-8.05-1.6-8.05-6.644" transform="translate(5769 -583.846)" fill="#dbb2ff"/>
    <path id="path30" d="M9.4-43.01a1.844,1.844,0,0,1-1.94-2.46h0a2.419,2.419,0,0,0-.97,3.144h0a1.188,1.188,0,0,1-1.074,1.819h0c-1.18.1-1.836-1.063-1.232-2.911h0A5.393,5.393,0,0,0,2.5-39.575h0c0,3.28,3.165,5.939,7.069,5.939h0c3.9,0,7.069-2.659,7.069-5.939h0a5.087,5.087,0,0,0-.432-2.05h0c-.191,1.882-1.386,2.85-2.634,2.4h0c-1.169-.422-.381-2.067-.323-2.852h0c.1-1.331,0-2.854-2.882-4.12h0c1.2,1.921.138,3.115-.97,3.188" transform="translate(5740.5 -547.724)" fill="#c8fff4"/>
  </g>
</svg>
