<svg xmlns="http://www.w3.org/2000/svg" width="635" height="557" viewBox="0 0 635 557">
    <defs>
        <clipPath id="gzp555kzvb">
            <path data-name="패스 1473" d="M385.528 451.906c7.414 9.89 19.3 16.768 31.954 19.637 5.973 1.354 13.063 1.586 17.144-2.387 3.208-3.123 3.522-8.083 1.962-12.26s-4.7-7.74-7.871-11.124a15.67 15.67 0 0 0-3.235-2.847c-1.964-1.185-4.342-1.541-6.6-2.091-7.646-1.864-15.219-6.267-22.807-4.739-7.605 1.532-14.419 10.646-10.547 15.811z" transform="translate(-384.408 -435.778)" style="fill:none"/>
        </clipPath>
        <clipPath id="lsdvwt1vfc">
            <path data-name="패스 1479" d="M345.924 466.325c.863 2.3 3.8 2.846 6.246 3.1 11.714 1.245 23.6 4 35.124 1.429-.065 0-.13 0 .031.018a46.969 46.969 0 0 0-.621-18.154c-1-4.268-2.567-8.886-.706-12.854 3.309-.9 6.391 1.8 8.911 4.129 6.932 6.4 15.9 11.685 25.332 10.988a82.864 82.864 0 0 0 8.084-37.23c-9.464-1.72-18.511-5.28-27.954-7.108a106.783 106.783 0 0 1-11.127-2.284c-3.434-1.054-6.66-2.68-10.011-3.971a53.979 53.979 0 0 0-21.993-3.526c-2.667.132-5.438.5-7.657 1.989a12.676 12.676 0 0 0-4.356 5.829c-2.406 5.786-2.4 12.254-2.234 18.518a350.044 350.044 0 0 0 2.939 38.56c.068.004.128.004-.008.567z" transform="translate(-342.93 -400.802)" style="fill:none"/>
        </clipPath>
        <clipPath id="mdd0imszyd">
            <path data-name="패스 1487" d="M473.313 447.878c2.181 9.319-4.8 18.924-11.907 25.332s-15.9 10.624-23.553 16.372c-3.6 2.708-7.064 5.91-8.739 10.095-1.241 3.1-1.41 6.506-1.549 9.841-.71 17-1.02 34.008-1.209 50.914-10.7 7.666-24.374 9.527-37.44 11.143-7.922.98-16.5 1.832-22.929-1.99-1.4-14.743.906-29.566 3.465-44.152.855-4.876 1.761-9.815 3.888-14.285 4.651-9.776 12.388-18.339 19.593-26.419 6.427-7.208 12.9-13.744 15.246-23.318 1.264-6.047 2.851-12.626 7.768-16.365 2.218-1.686 12.029-4.84 14.675-5.712 13.561-4.466 20.865-6.052 34.859-3.223 2.681.542 5.627 1.583 6.757 4.074 1.062 2.337.451 5.026 1.075 7.693z" transform="translate(-365.563 -434.696)" style="fill:none"/>
        </clipPath>
        <clipPath id="o6h7qlcvre">
            <path data-name="패스 1502" d="M441.007 293.349c-2.515 7.967-5.013 16.4-3.245 24.57a14.6 14.6 0 0 0 2.618 6.023 13.816 13.816 0 0 0 3.12 2.8 21.255 21.255 0 0 0 16.8 3.035 21.542 21.542 0 0 0 13.57-10.485 9.993 9.993 0 0 0 7.315-4.079c1.286-1.781 1.862-4.5.323-6.063a5.819 5.819 0 0 0-6.726-.819c-.265-3.816-2.6-6.192-5.4-8.748a34.014 34.014 0 0 0-9.72-5.771 31.6 31.6 0 0 0-9.359-2.737c-3.246-.306-7.712-.835-9.307 2.246a.411.411 0 0 0 .664.134c.175-.209.048-.596-.653-.106z" transform="translate(-437.167 -290.836)" style="fill:none"/>
        </clipPath>
        <clipPath id="fbt5v5ez3f">
            <path data-name="사각형 204" style="fill:none" d="M0 0h199.146v52.006H0z"/>
        </clipPath>
        <linearGradient id="4o12dcq3ta" x1=".848" y1=".026" x2=".191" y2=".936" gradientUnits="objectBoundingBox">
            <stop offset="0" stop-color="#fff"/>
            <stop offset=".489" stop-color="#f6f6f6"/>
            <stop offset=".661" stop-color="#f7f7f7"/>
            <stop offset=".876" stop-color="#efefef"/>
        </linearGradient>
    </defs>
    <g data-name="그룹 498">
        <g data-name="Artwork 93">
            <g data-name="그룹 483">
                <path data-name="패스 1367" d="M336.7 553.793s123.322 35.01 218.44-61.033c0 0 16.525-41.789 13.36-76.724s79.562-116.417 97.333-176.226 33.873-189.821-109.2-214.737c0 0-199.419-49.4-190.779 203.563 0 0-5.471 129.19-94.791 163.041.005-.001-177.102 103.523 65.637 162.116z" transform="translate(-42.632 -4.325)" style="fill:url(#4o12dcq3ta)"/>
                <path data-name="패스 1368" d="M283.29 264.188c-1.225-17.3 2.312-34.569 2.917-51.906s-2.3-35.979-14.095-48.694a29.672 29.672 0 0 0-7.719-6.145 32.484 32.484 0 0 0-8.866-2.967 56.751 56.751 0 0 0-30.1 2.174c-3.577 1.276-7.076 2.924-10.67 4.12a92.89 92.89 0 0 0-3.923-.066c-6.531.039-12.7-3.358-17.376-7.922-5.55-5.422-9.281-12.392-12.924-19.243-10.148-19.074-20.334-38.239-27.426-58.646s-11.029-42.266-7.894-63.79c-34.442-1.243-68.477.553-100.807 6.208-18.265 3.195-30.311 3.337-43.9 6.6.228.115.457.228 1.155-.014-2.74 46.174 12.009 92.226 35.651 131.983a187.754 187.754 0 0 0 17.711 25.439 134.572 134.572 0 0 0 32.19 27.685c7.455 4.587 15.531 8.5 24.2 9.676 7.347 1 14.835 0 22.055-1.695a117.25 117.25 0 0 0 29.551-11.338 32.224 32.224 0 0 1 2.914 11.03 71.9 71.9 0 0 1-1.056 20.269c-1.587 8.078-4.545 15.808-6.97 23.675-6.317 20.49-9.009 42.422-5.035 63.492s15.048 41.207 31.935 53.458q22.158-11.771 44.779-22.64c19.241-9.245 39.1-18.1 60.278-20.752 5.013-.628 10.33-.991 14.751-4.486-9.763-20.931-19.695-42.461-21.326-65.505z" transform="translate(-.104 -2.191)" style="fill:#2d3262"/>
                <path data-name="패스 1369" d="M154.73 327.561a128.625 128.625 0 0 0-2.943 23.53c5.738-1.487 12.1-1.914 18.3-2.558a247.536 247.536 0 0 0 32.413-5.58l3.562-23.611c-17.976 1.92-35.601 4.907-51.332 8.219z" transform="translate(-31.004 -65.229)" style="fill:#4246dc"/>
                <path data-name="패스 1370" d="M290.358 255.125c-1.225-17.3 2.313-34.569 2.918-51.905s-2.3-35.979-14.095-48.694a29.7 29.7 0 0 0-7.719-6.145 32.484 32.484 0 0 0-8.866-2.967 56.749 56.749 0 0 0-30.1 2.173c-3.577 1.277-7.077 2.924-10.67 4.121a94.65 94.65 0 0 0-3.924-.067c-6.531.04-12.7-3.357-17.376-7.921-5.55-5.422-9.281-12.392-12.924-19.243-10.147-19.077-20.332-38.242-27.426-58.647s-11.03-42.267-7.894-63.79C117.841.8 83.8 2.593 51.475 8.248c-18.265 3.195-30.31 3.337-43.9 6.6.228.114.457.228 1.155-.014C6 61.012 20.745 107.064 44.385 146.821A187.833 187.833 0 0 0 62.1 172.26a134.6 134.6 0 0 0 32.19 27.685c7.455 4.587 15.531 8.5 24.2 9.675 7.348 1 14.835 0 22.055-1.695a117.226 117.226 0 0 0 29.555-11.336 32.207 32.207 0 0 1 2.914 11.03 71.868 71.868 0 0 1-1.055 20.269c-1.587 8.077-4.545 15.808-6.971 23.675-6.316 20.489-9.008 42.422-5.035 63.491s15.047 41.208 31.933 53.458q22.157-11.771 44.779-22.64c19.242-9.245 39.1-18.1 60.278-20.752 5.013-.627 10.331-.991 14.751-4.486-9.773-20.934-19.705-42.465-21.336-65.509z" transform="translate(-1.548 -.34)" style="fill:#f2f2f2"/>
                <path data-name="패스 1371" d="M146.85 257.442s14.312-1.33 28.075-15.432c0 0 13.8-16.039 23.532 2.4 0 .002-21.898 15.406-51.607 13.032z" transform="translate(-29.996 -48.112)" style="fill:#a5a5a5"/>
                <path data-name="패스 1372" d="M167.562 337.605a16.158 16.158 0 0 0 2.266 4.839 3.159 3.159 0 0 0 1.217 1.171 2.254 2.254 0 0 0 1.283.13c2.058-.335 3.226-2.481 4.087-4.381l3.282-7.244" transform="translate(-34.226 -67.839)" style="stroke-miterlimit:10;stroke:#35ddd8;strokeWidth:.796px;fill:none"/>
                <path data-name="패스 1373" d="M622.817 473.969c-3.654 12.416-4.919 25.393-6.025 38.288-.687 8.017-1.313 16.154.281 24.011a4.875 4.875 0 0 0 4.721.663c.57-14.941-1.591-30.042.907-44.783.941-5.552 2.542-11.076 2.245-16.7-.03-.565-.476-1.34-.973-1.173-.28-.069-.559-.139-1.156-.306z" transform="translate(-125.839 -96.813)" style="fill:#1fb4b0"/>
                <path data-name="패스 1374" d="M617.876 592.614a5.37 5.37 0 0 0-6.02-2.646c-2.176.621-4.039 2.682-5.193 5.216a8.5 8.5 0 0 0 9.21 1.106 5.168 5.168 0 0 0 2.235-1.927 122.047 122.047 0 0 0 1.944 13.569.872.872 0 0 0 1.1-.237 94.859 94.859 0 0 0-2.05-14.777 5.858 5.858 0 0 0 4.887 2.888 3.9 3.9 0 0 0 4.154-3.541c-1.532-3.047-4.485-4.706-7.2-4.043a3.943 3.943 0 0 0-3.075 4.393z" transform="translate(-123.917 -120.121)" style="fill:#1fb4b0"/>
                <path data-name="패스 1375" d="M252.036 597.469a8.951 8.951 0 0 0 8.877-1.019 12.253 12.253 0 0 0 3.165-3.835 10.969 10.969 0 0 0 1.2-2.852 21.684 21.684 0 0 0-4.825-.223 8.312 8.312 0 0 0-4.5 1.708 11.724 11.724 0 0 0-1.786 2.014 8.827 8.827 0 0 0-2.131 4.207z" transform="translate(-51.481 -120.408)" style="fill:#1fb4b0"/>
                <path data-name="패스 1376" d="M307.936 574.347a9.778 9.778 0 0 0-3.12 8.236 12.492 12.492 0 0 0 1.521 4.517 10.061 10.061 0 0 0 1.639 2.346 23.231 23.231 0 0 0 2.285-4.123 9.286 9.286 0 0 0 .68-4.72 12.083 12.083 0 0 0-.745-2.481 8.307 8.307 0 0 0-2.26-3.775z" transform="translate(-62.251 -117.316)" style="fill:#1fb4b0"/>
                <path data-name="패스 1377" d="M287.918 577.909a7.757 7.757 0 0 0 1.927 6.559 9.788 9.788 0 0 0 3.01 2.118 7.707 7.707 0 0 0 2.077.712 18.461 18.461 0 0 0-.528-3.613 7.4 7.4 0 0 0-1.775-3.252 9.432 9.432 0 0 0-1.6-1.206 6.41 6.41 0 0 0-3.111-1.318z" transform="translate(-58.782 -118.044)" style="fill:#35ddd8"/>
                <path data-name="패스 1378" d="M608 453.686c-.734 4.486-1.3 9.4 1.022 13.309a15.44 15.44 0 0 0 4.9 4.773 27.519 27.519 0 0 0 7.984 3.707 9.065 9.065 0 0 0 1.565-6.1A16.564 16.564 0 0 0 608 453.686z" transform="translate(-124.06 -92.67)" style="fill:#1fb4b0"/>
                <path data-name="패스 1379" d="M598.374 489.719a13.56 13.56 0 0 0 6.02 10.265 13.165 13.165 0 0 0 11.783 1.282 10.3 10.3 0 0 0-2.07-6.889 15.188 15.188 0 0 0-5.683-4.548c-3.277-1.588-7.324-2.202-10.05-.11z" transform="translate(-122.224 -99.757)" style="fill:#1fb4b0"/>
                <path data-name="패스 1380" d="M622.816 531.8a9.393 9.393 0 0 0 8.351-1.155 11.539 11.539 0 0 0 4.727-7.741 19 19 0 0 0-6.334-.812 8.492 8.492 0 0 0-5.7 2.634 6.641 6.641 0 0 0-1.044 7.074z" transform="translate(-127.101 -106.635)" style="fill:#1fb4b0"/>
                <path data-name="패스 1381" d="M504.192 604.73a11.991 11.991 0 0 0-8.05-4.381 8.745 8.745 0 0 0-3.195.034c-2.443.561-4.256 2.619-5.4 4.752a15.21 15.21 0 0 0 15.7.956q-.008 7-.021 13.991a1.884 1.884 0 0 0 1.394-.055c-.176-4.68-.352-9.36-.468-14.091a8.593 8.593 0 0 0 6.942 3.668 7.409 7.409 0 0 0 6.558-4.089 4.389 4.389 0 0 0-1.817-2.711 8.539 8.539 0 0 0-6.438-1.658 6.741 6.741 0 0 0-5.205 3.584z" transform="translate(-99.586 -122.601)" style="fill:#1fb4b0"/>
                <path data-name="패스 1382" d="M511.585 610.115a8.465 8.465 0 0 0-5.683-3.093 6.175 6.175 0 0 0-2.256.024 6.25 6.25 0 0 0-3.814 3.356 10.738 10.738 0 0 0 11.081.675q-.006 4.943-.014 9.878a1.326 1.326 0 0 0 .984-.038 762.35 762.35 0 0 1-.33-9.95 6.068 6.068 0 0 0 4.9 2.59 5.23 5.23 0 0 0 4.63-2.887 3.1 3.1 0 0 0-1.283-1.914 6.031 6.031 0 0 0-4.546-1.17 4.76 4.76 0 0 0-3.669 2.529z" transform="translate(-102.096 -123.972)" style="fill:#35ddd8"/>
                <path data-name="패스 1383" d="M554.7 586.839a13.122 13.122 0 0 0-8.55-3.755 7.743 7.743 0 0 0-4.514 1 4.217 4.217 0 0 0-2.069 3.928c0-.034 0-.068.018-.07a12.033 12.033 0 0 1 14.3 2.029 70.685 70.685 0 0 0 3.54 12.709 1.136 1.136 0 0 0 1.06-.263 95.232 95.232 0 0 0-3.773-13.124 6.627 6.627 0 0 1 4.918-3.3 11.584 11.584 0 0 1 5.952.887 3.419 3.419 0 0 0-1.287-2.874 6.228 6.228 0 0 0-2.988-1.253 7.309 7.309 0 0 0-4.456.493 3.447 3.447 0 0 0-2.151 3.593z" transform="translate(-110.206 -119.006)" style="fill:#35ddd8"/>
                <path data-name="패스 1384" d="M332.73 617.056a11.44 11.44 0 0 0-6.97-2.69 7.026 7.026 0 0 0-3.68.717 2.943 2.943 0 0 0-1.687 2.815c0-.025 0-.049.015-.05a10.84 10.84 0 0 1 11.659 1.454 45.922 45.922 0 0 0 2.886 9.106 1.019 1.019 0 0 0 .863-.189 62 62 0 0 0-3.076-9.4 5.473 5.473 0 0 1 4.009-2.363 10.626 10.626 0 0 1 4.852.637 2.334 2.334 0 0 0-1.05-2.059 5.457 5.457 0 0 0-2.435-.9 6.716 6.716 0 0 0-3.633.353 2.453 2.453 0 0 0-1.753 2.569z" transform="translate(-65.439 -125.423)" style="fill:#1fb4b0"/>
                <path data-name="패스 1385" d="M627.48 601.611a5.928 5.928 0 0 1 3.952-2.815 3.162 3.162 0 0 1 2.288.394 2.939 2.939 0 0 1 1.28 2.368c0-.021 0-.043-.014-.043a5.012 5.012 0 0 0-6.9 2.028 54.935 54.935 0 0 1-.888 8.2.48.48 0 0 1-.539-.111 73.94 73.94 0 0 1 .974-8.471 3.377 3.377 0 0 0-2.633-1.824 4.613 4.613 0 0 0-2.867.871 2.464 2.464 0 0 1 .44-1.88 2.779 2.779 0 0 1 1.385-.947 2.893 2.893 0 0 1 2.224.078 2.313 2.313 0 0 1 1.298 2.152z" transform="translate(-127.069 -122.299)" style="fill:#35ddd8"/>
                <g data-name="그룹 470">
                    <path data-name="패스 1386" d="M171.068 403.727a108.246 108.246 0 0 0 2.5 40.392 160.949 160.949 0 0 0 9.973 26.951 316.131 316.131 0 0 0 52.49 79.891c6.632 7.361 14 14.655 23.39 17.762a9.833 9.833 0 0 0 4.462-4.385 225.908 225.908 0 0 1-85.159-115.785c-2.741-8.632-4.969-17.5-5.48-26.539-.379-6.693.184-13.461-1.531-19.94-.533.326-.572 1.078-.645 1.653z" transform="translate(-34.766 -82.128)" style="fill:#35ddd8"/>
                    <path data-name="패스 1387" d="M192.476 549.716z" transform="translate(-39.315 -112.286)" style="fill:#1fb4b0"/>
                    <path data-name="패스 1389" d="M182.845 411.411a9.235 9.235 0 0 1-.672 5.215 20.515 20.515 0 0 1-2.595 4.235 19.1 19.1 0 0 1-3.434 3.835 5.444 5.444 0 0 1-4.552 1.231 17.7 17.7 0 0 1 3.289-10.27 10.675 10.675 0 0 1 8-4.567l.054.2" transform="translate(-35.049 -83.97)" style="fill:#35ddd8"/>
                    <path data-name="패스 1390" d="M148.858 432.9a14.868 14.868 0 0 1 11.636.651 20.016 20.016 0 0 1 9.367 9.022 15.3 15.3 0 0 1-12.066-.061 16.965 16.965 0 0 1-9.262-9.92" transform="translate(-30.339 -88.242)" style="fill:#35ddd8"/>
                    <path data-name="패스 1391" d="M182.909 468.5c-1.555-1.895-1.071-4.31-.411-6.286a27.617 27.617 0 0 1 5-9.619 12.712 12.712 0 0 1 10.127-4.629 17.964 17.964 0 0 1-2.454 13.82 15.289 15.289 0 0 1-12.262 6.714z" transform="translate(-37.149 -91.5)" style="fill:#35ddd8"/>
                    <path data-name="패스 1392" d="M197.758 503.693a16.138 16.138 0 0 1 2.571-14.051 23.2 23.2 0 0 1 12.016-8.068c1.092 5.053 1.1 10.4-.975 14.918s-6.49 8.06-13.612 7.201z" transform="translate(-40.263 -98.367)" style="fill:#35ddd8"/>
                    <path data-name="패스 1393" d="M202.108 526.787a18.256 18.256 0 0 1-13.282 5.142 18.854 18.854 0 0 1-13.092-6.085 10.2 10.2 0 0 1 6.3-5.141 25.013 25.013 0 0 1 8.331-.847 20.571 20.571 0 0 1 5.481.7 8.975 8.975 0 0 1 6.262 6.231z" transform="translate(-35.895 -106.182)" style="fill:#35ddd8"/>
                    <path data-name="패스 1394" d="M223.344 512.394a17.7 17.7 0 0 1-7.791 6.29 14.4 14.4 0 0 1-8.16.866c-2.651-.511-5.07-2.078-4.779-5.116a13.56 13.56 0 0 1 5.458-4.349 14.835 14.835 0 0 1 5.851-1.2c3.871-.048 7.431 1.215 9.421 3.509z" transform="translate(-41.381 -103.945)" style="fill:#1fb4b0"/>
                    <path data-name="패스 1395" d="M211.578 562.078a17.7 17.7 0 0 1 9.387-3.485 14.4 14.4 0 0 1 8.012 1.775c2.351 1.328 4.145 3.583 2.9 6.371a13.552 13.552 0 0 1-6.558 2.386 14.815 14.815 0 0 1-5.929-.723c-3.682-1.186-6.655-3.515-7.812-6.324z" transform="translate(-43.217 -114.093)" style="fill:#35ddd8"/>
                    <path data-name="패스 1396" d="M220.792 583.955a17.706 17.706 0 0 1 7.221-6.937 14.4 14.4 0 0 1 8.055-1.564c2.685.281 5.23 1.635 5.2 4.685a13.552 13.552 0 0 1-5.064 4.8 14.815 14.815 0 0 1-5.726 1.7c-3.851.383-7.505-.568-9.686-2.684z" transform="translate(-45.099 -117.528)" style="fill:#35ddd8"/>
                    <path data-name="패스 1397" d="M175.872 495.509a11.982 11.982 0 0 1 6.352-2.367 9.745 9.745 0 0 1 5.425 1.194c1.593.9 2.81 2.422 1.972 4.31a9.177 9.177 0 0 1-4.439 1.621 10.011 10.011 0 0 1-4.015-.484 8.323 8.323 0 0 1-5.295-4.274z" transform="translate(-35.923 -100.725)" style="fill:#1fb4b0"/>
                    <path data-name="패스 1398" d="M235.075 533.366a10.8 10.8 0 0 0-7.809 8.511 15.658 15.658 0 0 0 .55 6.55 15.087 15.087 0 0 0 1.555 3.9 26.492 26.492 0 0 0 4.989-3.839 9.82 9.82 0 0 0 2.819-5.523 14.843 14.843 0 0 0-.165-3.545c-.268-2.102-.584-4.32-1.939-6.054z" transform="translate(-46.391 -108.946)" style="fill:#1fb4b0"/>
                    <path data-name="패스 1399" d="M156.706 424.231a5.367 5.367 0 0 0 1.283 3.639 15.61 15.61 0 0 0 2.971 2.685 16.849 16.849 0 0 0 3.71 2.289 6.49 6.49 0 0 0 4.439.28 11.324 11.324 0 0 0-4.377-6.907 11.557 11.557 0 0 0-8.1-2.211l-.026.148" transform="translate(-31.989 -86.594)" style="fill:#1fb4b0"/>
                    <path data-name="패스 1400" d="M188.987 426.806a17.434 17.434 0 0 0-10.939 7.473 16.338 16.338 0 0 0-2.231 12.843 18.507 18.507 0 0 0 11.818-7.257 13.884 13.884 0 0 0 1.434-13.5" transform="translate(-35.814 -87.09)" style="fill:#1fb4b0"/>
                    <path data-name="패스 1401" d="M175.993 464.69c.224-2.328-1.468-4-3.064-5.237a27.2 27.2 0 0 0-9.2-5.062A12.351 12.351 0 0 0 153.107 456a17.551 17.551 0 0 0 9.427 9.753 14.9 14.9 0 0 0 13.459-1.063z" transform="translate(-31.273 -92.706)" style="fill:#1fb4b0"/>
                    <path data-name="패스 1402" d="M213.38 538.725a13.107 13.107 0 0 0-11.263-3.757 18.672 18.672 0 0 0-10.489 5.823c3.282 2.877 7.189 5.052 11.288 5.316s8.375-1.642 10.464-7.382z" transform="translate(-39.142 -109.245)" style="fill:#1fb4b0"/>
                    <path data-name="패스 1403" d="M179.818 482.377c-2.606-3.5-7.518-6.192-12.672-7.444a35.6 35.6 0 0 0-15.215-.21 31.06 31.06 0 0 0 12.132 8.579c5.017 1.914 11.047 2.337 15.755-.925z" transform="translate(-31.033 -96.821)" style="fill:#1fb4b0"/>
                    <path data-name="패스 1404" d="M257.57 555.48c-2.822.325-5.516 2.471-7.285 5.8a22.609 22.609 0 0 0-2.215 12.14c1.566.695 3.274.068 4.657-1.2a19.074 19.074 0 0 0 3.51-5.009 20.052 20.052 0 0 0 1.75-4.019 11.362 11.362 0 0 0-.417-7.712z" transform="translate(-50.652 -113.463)" style="fill:#1fb4b0"/>
                </g>
                <g data-name="그룹 471">
                    <path data-name="패스 1405" d="M251.234 463.092a62.7 62.7 0 0 1 13.317 21.392 97.448 97.448 0 0 1 4.423 17.626 201.65 201.65 0 0 1 .8 61.5c-.891 6.391-2.2 13.044-6.119 18.4a6.22 6.22 0 0 1-3.988-.411c11.335-30.232 12.666-63.379 3.728-92.8a63.867 63.867 0 0 0-6.687-15.6c-2.226-3.53-4.984-6.718-6.414-10.68.4-.048.692.313.94.573z" transform="translate(-51.124 -94.474)" style="fill:#35ddd8"/>
                    <path data-name="패스 1406" d="M292.922 545.251z" transform="translate(-59.833 -111.374)" style="fill:#1fb4b0"/>
                    <path data-name="패스 1408" d="M246.347 472.432a5.314 5.314 0 0 0 2.254 2.361 12.3 12.3 0 0 0 2.931 1.089 11.9 11.9 0 0 0 3.237.551 3.819 3.819 0 0 0 2.893-1.216 10.259 10.259 0 0 0-5.494-3.856 7.147 7.147 0 0 0-5.953.922l.042.122" transform="translate(-50.292 -96.226)" style="fill:#35ddd8"/>
                    <path data-name="패스 1409" d="M271.978 468.776a10.762 10.762 0 0 0-6.014 5.023 13.432 13.432 0 0 0-1.758 8.334 11.056 11.056 0 0 0 6.459-4.9 11.252 11.252 0 0 0 1.376-8.744" transform="translate(-53.946 -95.694)" style="fill:#35ddd8"/>
                    <path data-name="패스 1410" d="M266.413 501.545c.148-1.584-.989-2.607-2.06-3.338a16.326 16.326 0 0 0-6.179-2.835 8.656 8.656 0 0 0-7.12 1.751 10.367 10.367 0 0 0 6.334 5.985 10.249 10.249 0 0 0 9.025-1.563z" transform="translate(-51.281 -101.153)" style="fill:#35ddd8"/>
                    <path data-name="패스 1411" d="M271.283 525.424a9.331 9.331 0 0 0-6.481-6.053 15.277 15.277 0 0 0-9.383.777 13.764 13.764 0 0 0 5.937 7.135c2.757 1.444 6.412 1.449 9.927-1.859z" transform="translate(-52.172 -106)" style="fill:#35ddd8"/>
                    <path data-name="패스 1412" d="M276.361 538.2a12.589 12.589 0 0 0 9-2.764 13.41 13.41 0 0 0 4.824-8.354 6.569 6.569 0 0 0-5.248-.053 17.976 17.976 0 0 0-4.782 2.935 14.973 14.973 0 0 0-2.69 2.565 6 6 0 0 0-1.104 5.671z" transform="translate(-56.389 -107.545)" style="fill:#35ddd8"/>
                    <path data-name="패스 1413" d="M260.26 539.519a11.429 11.429 0 0 0 6.469.03 10.34 10.34 0 0 0 4.7-2.856c1.239-1.327 1.969-3.094.711-4.51a8.763 8.763 0 0 0-4.51.008 10.549 10.549 0 0 0-3.579 1.755 8.808 8.808 0 0 0-3.791 5.573z" transform="translate(-53.161 -108.645)" style="fill:#1fb4b0"/>
                    <path data-name="패스 1414" d="M284.772 559.653a12.27 12.27 0 0 0-6.308 2.029 10.453 10.453 0 0 0-3.66 4.128c-.781 1.619-.926 3.481.753 4.387a9.4 9.4 0 0 0 4.388-1.442 10.792 10.792 0 0 0 2.924-2.755c1.549-2.088 2.3-4.463 1.903-6.347z" transform="translate(-56.017 -114.316)" style="fill:#35ddd8"/>
                    <path data-name="패스 1415" d="M287.624 574.86a11.2 11.2 0 0 0-6.4-.587 10.245 10.245 0 0 0-4.895 2.461c-1.341 1.225-2.216 2.935-1.094 4.463a8.592 8.592 0 0 0 4.463.38 10.4 10.4 0 0 0 3.693-1.453 8.861 8.861 0 0 0 4.233-5.264z" transform="translate(-56.116 -117.257)" style="fill:#35ddd8"/>
                    <path data-name="패스 1416" d="M280.561 511.505a8.3 8.3 0 0 0-4.272 1.368 7.077 7.077 0 0 0-2.481 2.792c-.53 1.1-.63 2.356.505 2.971a6.37 6.37 0 0 0 2.972-.973 7.285 7.285 0 0 0 1.981-1.864 5.675 5.675 0 0 0 1.295-4.294z" transform="translate(-55.851 -104.481)" style="fill:#1fb4b0"/>
                    <path data-name="패스 1417" d="M263 554.865a6.751 6.751 0 0 1 7.284 1.143 9.086 9.086 0 0 1 2.082 3.527 9.2 9.2 0 0 1 .579 2.594 17.265 17.265 0 0 1-4.074.076 5.817 5.817 0 0 1-3.519-1.65 8.56 8.56 0 0 1-1.2-1.856 7.182 7.182 0 0 1-1.152-3.834z" transform="translate(-53.72 -113.219)" style="fill:#1fb4b0"/>
                    <path data-name="패스 1418" d="M265.582 467.5a3.248 3.248 0 0 1 .631 2.355 10.559 10.559 0 0 1-.621 2.554 11.8 11.8 0 0 1-1.163 2.652 4.71 4.71 0 0 1-2.282 1.933 7.193 7.193 0 0 1-.155-5.252 8.348 8.348 0 0 1 3.546-4.383l.068.064" transform="translate(-53.429 -95.464)" style="fill:#1fb4b0"/>
                    <path data-name="패스 1419" d="M248.3 482.98a11.459 11.459 0 0 1 8.588-.643 9.426 9.426 0 0 1 5.859 5.581 12.3 12.3 0 0 1-8.982 1.106 8.038 8.038 0 0 1-5.67-6.235" transform="translate(-50.676 -98.41)" style="fill:#1fb4b0"/>
                    <path data-name="패스 1420" d="M268.607 495.967c-.965-1.085-.664-2.612-.255-3.878a19.236 19.236 0 0 1 3.107-6.269 8.8 8.8 0 0 1 6.287-3.474 11.691 11.691 0 0 1-1.524 8.726 10.682 10.682 0 0 1-7.615 4.895z" transform="translate(-54.735 -98.525)" style="fill:#1fb4b0"/>
                    <path data-name="패스 1421" d="M275.066 548.879a9.411 9.411 0 0 1 4.688-6.441 12.537 12.537 0 0 1 7.748-1.294 13.971 13.971 0 0 1-4.135 7.237 6.613 6.613 0 0 1-8.301.498z" transform="translate(-56.185 -110.509)" style="fill:#1fb4b0"/>
                    <path data-name="패스 1422" d="M272.218 506.254c.131-2.816 1.792-6.159 4.106-8.87a25.831 25.831 0 0 1 8.1-6.246 21.529 21.529 0 0 1-3.4 9.225c-2.007 2.99-5.093 5.637-8.806 5.891z" transform="translate(-55.604 -100.321)" style="fill:#1fb4b0"/>
                    <path data-name="패스 1423" d="M258.723 575.232a6.557 6.557 0 0 1 6.02-.011 13 13 0 0 1 5.6 5.232 3.027 3.027 0 0 1-2.935 1.276 11.535 11.535 0 0 1-3.7-1.111 11.721 11.721 0 0 1-2.4-1.323 6.6 6.6 0 0 1-2.585-4.063z" transform="translate(-52.847 -117.348)" style="fill:#1fb4b0"/>
                </g>
                <path data-name="패스 1424" d="M723.659 376.649z" transform="translate(-147.815 -76.935)" style="fill:#1fb4b0"/>
                <path data-name="패스 1426" d="M575.205 312.988a12.986 12.986 0 0 0 2.917 3.251 22.917 22.917 0 0 0 3.188 2.079 17.292 17.292 0 0 0 3.32 1.587c1.039.31 1.975.267 2.445-.434a23.32 23.32 0 0 0-6.531-5.865c-2.211-1.242-4.245-1.587-5.514-.821l.079.145" transform="translate(-117.456 -63.807)" style="fill:#35ddd8"/>
                <path data-name="패스 1427" d="M597.907 308.637a10.762 10.762 0 0 0-6.014 5.023 13.436 13.436 0 0 0-1.758 8.333 11.049 11.049 0 0 0 6.459-4.9 11.249 11.249 0 0 0 1.376-8.744" transform="translate(-120.52 -62.984)" style="fill:#35ddd8"/>
                <path data-name="패스 1428" d="M594.3 389.13c.24-2.58-1.611-4.248-3.357-5.439a26.616 26.616 0 0 0-10.066-4.618 14.1 14.1 0 0 0-11.6 2.852 16.884 16.884 0 0 0 10.318 9.749 16.7 16.7 0 0 0 14.705-2.544z" transform="translate(-116.281 -77.377)" style="fill:#35ddd8"/>
                <path data-name="패스 1429" d="M588.161 330.644a9.331 9.331 0 0 0-6.481-6.053 15.279 15.279 0 0 0-9.383.777 13.767 13.767 0 0 0 5.937 7.135c2.757 1.444 6.412 1.449 9.927-1.859z" transform="translate(-116.898 -66.214)" style="fill:#35ddd8"/>
                <path data-name="패스 1430" d="M676.972 539.462a9.075 9.075 0 0 0-.795-8.541 16.372 16.372 0 0 0-7.287-5.958 13.053 13.053 0 0 0-.292 8.892c1.066 2.874 3.702 5.402 8.374 5.607z" transform="translate(-136.435 -107.229)" style="fill:#35ddd8"/>
                <path data-name="패스 1431" d="M620.312 480.184a9.331 9.331 0 0 0-6.48-6.054 15.286 15.286 0 0 0-9.383.777 13.766 13.766 0 0 0 5.938 7.135c2.755 1.444 6.413 1.449 9.925-1.858z" transform="translate(-123.465 -96.759)" style="fill:#35ddd8"/>
                <path data-name="패스 1432" d="M619.879 516.141a24.292 24.292 0 0 0 13.093-2.263c3.68-1.888 6.15-4.8 6.687-7.912a14.284 14.284 0 0 0-7.714-.3 28.482 28.482 0 0 0-6.886 2.631 18.669 18.669 0 0 0-3.83 2.371c-1.685 1.467-2.491 3.376-1.35 5.473z" transform="translate(-126.508 -103.209)" style="fill:#35ddd8"/>
                <path data-name="패스 1433" d="M577.138 344.739a11.428 11.428 0 0 0 6.469.03 10.345 10.345 0 0 0 4.7-2.855c1.239-1.328 1.97-3.095.711-4.511a8.779 8.779 0 0 0-4.51.008 10.536 10.536 0 0 0-3.579 1.755 8.8 8.8 0 0 0-3.791 5.573z" transform="translate(-117.887 -68.859)" style="fill:#1fb4b0"/>
                <path data-name="패스 1434" d="M630.414 360.045a12.266 12.266 0 0 0-6.615.379 10.445 10.445 0 0 0-4.58 3.076c-1.163 1.371-1.771 3.137-.375 4.435a9.407 9.407 0 0 0 4.61-.293 10.792 10.792 0 0 0 3.523-1.934c2.023-1.63 3.349-3.739 3.437-5.663z" transform="translate(-126.241 -73.484)" style="fill:#35ddd8"/>
                <path data-name="패스 1435" d="M629.528 375.346a11.2 11.2 0 0 0-6.043-2.177 10.249 10.249 0 0 0-5.357 1.151c-1.606.849-2.883 2.284-2.181 4.046a8.591 8.591 0 0 0 4.225 1.49 10.4 10.4 0 0 0 3.94-.477 8.864 8.864 0 0 0 5.416-4.033z" transform="translate(-125.774 -76.221)" style="fill:#35ddd8"/>
                <path data-name="패스 1436" d="M637.764 482.873a11.514 11.514 0 0 0-7.865.26 12.158 12.158 0 0 0-5.464 4.456c-1.391 2.027-2.127 4.681-.475 6.72a8.811 8.811 0 0 0 5.482-.225 11.768 11.768 0 0 0 4.2-2.771 13.186 13.186 0 0 0 4.122-8.44z" transform="translate(-127.257 -98.515)" style="fill:#35ddd8"/>
                <path data-name="패스 1437" d="M643.894 434.418a11 11 0 0 1 11.867 1.863 14.806 14.806 0 0 1 3.391 5.747 14.989 14.989 0 0 1 .943 4.225 28.03 28.03 0 0 1-6.636.123 9.464 9.464 0 0 1-5.733-2.687 13.954 13.954 0 0 1-1.951-3.023c-1.008-1.901-2.043-3.933-1.881-6.248z" transform="translate(-131.519 -88.541)" style="fill:#35ddd8"/>
                <path data-name="패스 1438" d="M646.046 328.335a3.248 3.248 0 0 1 .631 2.355 10.549 10.549 0 0 1-.621 2.554 11.785 11.785 0 0 1-1.163 2.652 4.706 4.706 0 0 1-2.282 1.933 7.193 7.193 0 0 1-.155-5.252 8.359 8.359 0 0 1 3.544-4.384l.068.064" transform="translate(-131.142 -67.037)" style="fill:#1fb4b0"/>
                <path data-name="패스 1439" d="M577.112 366.575a18.664 18.664 0 0 1 13.512 3.776 15.357 15.357 0 0 1 5.884 11.8c-5.119.641-10.466-.356-14.373-3.283a13.1 13.1 0 0 1-5.23-12.693" transform="translate(-117.797 -74.795)" style="fill:#1fb4b0"/>
                <path data-name="패스 1440" d="M594.536 335.828c-.965-1.085-.664-2.612-.255-3.878a19.22 19.22 0 0 1 3.108-6.269 8.8 8.8 0 0 1 6.287-3.474 11.694 11.694 0 0 1-1.525 8.726 10.682 10.682 0 0 1-7.615 4.895z" transform="translate(-121.309 -65.814)" style="fill:#1fb4b0"/>
                <path data-name="패스 1441" d="M618.611 363.169c-1.861-2.117-2.988-5.676-3.205-9.234a25.844 25.844 0 0 1 1.49-10.118 21.522 21.522 0 0 1 3.956 9c.637 3.543.255 7.59-2.241 10.352z" transform="translate(-125.694 -70.228)" style="fill:#1fb4b0"/>
                <path data-name="패스 1442" d="M324.163 627.307a9.14 9.14 0 0 1 6.178-2.848 6.732 6.732 0 0 1 2.377.142 6.433 6.433 0 0 1 3.818 3.606 11.708 11.708 0 0 1-11.723.112l-.582 10.037a1.446 1.446 0 0 1-1.035-.09c.331-3.351.661-6.7.949-10.092a6.548 6.548 0 0 1-5.323 2.378 5.474 5.474 0 0 1-4.707-3.173 3.194 3.194 0 0 1 1.468-1.879 6.583 6.583 0 0 1 4.863-.953 4.958 4.958 0 0 1 3.717 2.76z" transform="translate(-64.161 -127.544)" style="fill:#35ddd8"/>
                <path data-name="패스 1443" d="M519.3 431.588 548.156 415a76.149 76.149 0 0 0 12.7-8.483 77.135 77.135 0 0 0 9.562-10.867 144.68 144.68 0 0 0 10.267-15.916 198.091 198.091 0 0 0-6.655-53.44 90.834 90.834 0 0 0-4.218-12.69c6.484 7.008 9.978 16.2 13.323 25.137a23.881 23.881 0 0 1 1.291 4.23 30.559 30.559 0 0 1 .2 5.379 49.757 49.757 0 0 0 3.891 19.867A110.79 110.79 0 0 0 593.652 357a41.7 41.7 0 0 1 3.415-7.506c2.3-3.57 5.791-6.173 9.207-8.693 3.512-2.592 7.023-5.183 10.489-7.859-1.022 5.064-5.811 8.3-9.147 12.243a48.574 48.574 0 0 0-5.857 9.632l-9.149 18.067a120.45 120.45 0 0 0-7.719 17.487c-1.932 6.037-2.947 12.468-5.774 18.3 4.925-3.559 10.594-7.3 16.576-6.242 3.084.547 5.84 2.343 8.926 2.886 4.116.723 8.65-.8 12.375 1.091 2.641 1.344 4.236 4.127 6.652 5.623-4.6 1.235-9.059-2.607-13.821-2.835-1.465-.07-2.94.208-4.394.016-2.422-.319-4.524-1.9-6.932-2.316-3-.517-6 .836-8.556 2.484s-4.944 3.646-7.808 4.67c-3.673 1.313-7.908.935-11.176 3.121l-10.351 14.7a22.62 22.62 0 0 0-2.9 4.986 16.216 16.216 0 0 1-4.357 6.6c-3.419 3.016-6.962 5.9-10.508 8.778-.08 0-.159 0-.325.011A34.215 34.215 0 0 1 541.4 465.8a18.672 18.672 0 0 0-10.083 4.147c-1.584 1.3-3 2.9-4.907 3.664-2.905 1.162-6.371.016-8.592-2.188a16.016 16.016 0 0 1-3.991-8.346c-2.133-10.585 1.423-21.491 5.473-31.489z" transform="translate(-104.824 -64.057)" style="fill:#2d3262"/>
                <path data-name="패스 1445" d="M540.389 479.523c4.676 11.78 9.377 23.647 11.758 36.1.33 1.725.671 3.573 1.9 4.832a8.714 8.714 0 0 0 4.266 1.961c18.656 4.725 37.312 9.45 56.284 14.516l24.876-7.1a24.566 24.566 0 0 1 5.952-1.178 3.114 3.114 0 0 0 1.335-.212 3.4 3.4 0 0 0 1.131-1.3c1.923-2.9 5.523-4.065 8.7-5.491a37.933 37.933 0 0 0 10.637-7.154c1.068 1.2-.373 2.964-1.676 3.907q-7.451 5.4-14.445 11.387a14.3 14.3 0 0 1-3.222 2.293c-3.153 1.444-6.864.357-10.288.907-4.892.787-8.909 4.876-15.488 5.265l-.465.907c1.017 1.475 3.18 1.429 4.977 1.324a45.611 45.611 0 0 1 10.553.613c5.585.984 9.9.481 15.781.452a21.3 21.3 0 0 0 2.322-.222 20.474 20.474 0 0 1 2.389.258c1.27 0 1.558.96 2.347 1.956a13.243 13.243 0 0 1 2.577 11.492 10.283 10.283 0 0 1-7.665 7.353 9.1 9.1 0 0 1-6.629-1.452 17.443 17.443 0 0 0-9.967-3.033c-24.419.514-48.731-5.091-73.21-6.2a18.276 18.276 0 0 0-6.48.518c-1.311.425-2.515 1.129-3.816 1.585a21.418 21.418 0 0 1-4.7.89l-23.91 2.709c-5.827.66-11.876 1.3-17.436-.564.03-15.89.165-32.3 6.542-46.859 5.178-11.818 14.143-21.572 23.756-30.178z" transform="translate(-103.923 -97.948)" style="fill:#2d3262"/>
                <path data-name="패스 1447" d="M331.084 486.687c-7.265 9.689-8.892 22.321-10.847 34.273s-4.931 24.649-13.881 32.807c-3.549 3.235-7.83 5.54-12.063 7.81-2.6 1.4-5.363 2.832-8.316 2.746-2.577-.075-4.955-1.3-7.4-2.114-10.1-3.366-20.83.3-30.709 4.814a.461.461 0 0 0 .294.868 103.024 103.024 0 0 1 24.027-3.119c3.682 0 5.824.256 8.132 1.248 1.093.934 2.186 1.868 3.38 2.893a83.085 83.085 0 0 1-30.159 10.375c-4.8.664-9.715.921-14.264 2.583a48.487 48.487 0 0 0-10.072 5.629l-25.338 16.938c-2.632 1.76-5.546 4.33-6.069 7.162a1.461 1.461 0 0 0 2.178 1.514l26.535-15.5c7.405-4.326 15.307-8.786 23.881-8.6 4.084.088 8.082 1.243 12.164 1.406 8.93.357 17.265-3.984 25.476-7.513 13.988-6.013 28.776-9.9 43.473-14.332a20.963 20.963 0 0 1 5.16 2.053c5.766 2.674 12.238 3.3 18.566 3.886l15.191 1.409c9.089.844 18.291 1.684 27.429.615a791.118 791.118 0 0 0 73.391-30 12.939 12.939 0 0 0 1.3-.741c1.206-.749 1.562-.035 1.977-2.291.572.31.272-2.124.481-2.957a16.9 16.9 0 0 0 .524-2.532c2.25-24.327-1.624-44.443-12.482-66.668-1.016-2.08-2.2-4.2-4.127-5.483a13.26 13.26 0 0 0-5.539-1.752c-15.805-2.314-31.883.455-47.854.159-14.282-.264-28.631-2.978-42.765-.9s-23.814 12.827-31.674 23.314z" transform="translate(-40.397 -94.489)" style="fill:#2d3262"/>
                <path data-name="패스 1448" d="M659.142 571.255s.1 4.317 1.93 5.892c0 0-4.977-2.946-9.244-3.454a324.963 324.963 0 0 1-45.2-3.251s-27.987-4.165-32.913-2.591c0 0-4.063 1.118-6.5 1.93 0 0 5.029-6.5 12.241-6.2 0 0 38.906 5.649 53.534 5.643z" transform="translate(-115.858 -115.116)" style="fill:#232949"/>
                <path data-name="패스 1449" d="M551.507 546.99s3.758-11.035 8.533-11.413c0 0 7.925-3.121 16.2-.987a65.35 65.35 0 0 1-14.577-3.657 28.456 28.456 0 0 1-3.048-9.35s2.034 2.864-7.108 25.407z" transform="translate(-112.651 -106.539)" style="fill:#232949"/>
                <path data-name="패스 1450" d="M308.694 602.858s36.774-13 40.092-13c0 0 13.206 6.636 28.308 6.5 0 0-21.285-15.117-24.942-20.941 0-.001.156 10.646-43.458 27.441z" transform="translate(-63.054 -117.535)" style="fill:#232949"/>
                <path data-name="패스 1451" d="M351.673 528.076s.85 9.3 21.3 1.277l22.254-26.119s-11.935-.6-17.606-4.2l-24.153 12.589z" transform="translate(-71.833 -101.606)" style="fill:#232949"/>
                <path data-name="패스 1452" d="M426.442 582.868s17.416 1.206 24.876-3.5c0 0-8.123-9.25-8.261-20.462-.1-7.8 4.4-16.648 3.77-24.233-.743-8.97-.664-16.165.745-17.893 0 0 3.587-7.418 9.481-8.717s-2.586 1.05-16.124 0l-14.487 74.81" transform="translate(-87.105 -103.659)" style="fill:#232949"/>
                <path data-name="패스 1453" d="M482.273 582.391s25.192-10.733 28.443-12.459c0 0 21.027.786 30.153-2.637 0 0-24.193-.451-27.715-7.016 0 0-9.481-8.732-8.939-11.712 0 0 2.658 7.767.449 11.943 0-.001 3.919 10.171-22.391 21.881z" transform="translate(-98.509 -112.05)" style="fill:#232949"/>
                <path data-name="패스 1454" d="M646.28 554.817s1.042 1.547 4.067 1.946c0 0-12.723.716-14.5 1.523.005 0 6.735-4.45 10.433-3.469z" transform="translate(-129.88 -113.298)" style="fill:#232949"/>
                <path data-name="패스 1455" d="m502.492 523.2 2.65-8.035s5.046-7.023 6.836-7.674c0 0 7.908-12.75 15.363-17.316 0 0-10.526 6.913-16.723 7.725 0 0-22.348 6.681-26.006 6.642l11.175.875s2.534.108 3.095 3.508l3.407 3.4z" transform="translate(-98.987 -100.124)" style="fill:#232949"/>
                <path data-name="패스 1456" d="M545.692 478.8s8.635-6 10.057-7.925c0 0 6.044-9.649 6.908-12.063 0 0-6.3 6.548-10.158 6.817 0 0-16.964 1.895-29.46-1.864-.001-.002 15.261 18.749 22.653 15.035z" transform="translate(-106.836 -93.717)" style="fill:#232949"/>
                <path data-name="패스 1457" d="m596.654 427.4-1.524 5.079.762.444 3.555-2.761 2.222-1.492-2.857 3.364-3.682 2.54-.762-2.476s.794-2.508.889-2.667 1.397-2.031 1.397-2.031z" transform="translate(-121.406 -87.301)" style="fill:#232949"/>
                <path data-name="패스 1458" d="M602.626 364.526s2.381 14.063 3.937 14.857l-1.143 3.873-1.524 1.079a14.257 14.257 0 0 1 .7-5.143c.253-.761-1.97-14.666-1.97-14.666z" transform="translate(-123.093 -74.458)" style="fill:#232949"/>
                <path data-name="패스 1459" d="M600.233 353.765a5.132 5.132 0 0 0 1.333-4 51.292 51.292 0 0 1 .024 8.444l1.069 6.635-1.982-7.844.769-1.969z" transform="translate(-122.604 -71.443)" style="fill:#232949"/>
                <path data-name="패스 1460" d="M382.736 490.823a172.41 172.41 0 0 0 108.57-3.777c4.513-1.685 9.095-3.648 12.074-7.719a11.015 11.015 0 0 0 2.233-6.327c.075-6.39-5.735-9.867-11.13-11.738-12.984-4.5-27.026-4.291-40.721-3.756q-14.482.565-28.939 1.576c-12.826.9-26.041 2.176-37.381 8.371-4.578 2.5-9.01 6.138-10.407 11.252s1.829 10.97 5.701 12.118z" transform="translate(-76.946 -93.395)" style="fill:#9edbf0"/>
                <path data-name="패스 1462" d="M693.232 559.328a5.142 5.142 0 0 0-4.835 1.732 11.964 11.964 0 0 0-2.4 4.774c-.514 1.713-1.949 3.15-1.852 4.937s.741 4.348 2.031 5.587 4.326 1.383 5.978.7a7.4 7.4 0 0 0 3.224-3.4 16.409 16.409 0 0 0 1.638-3.547 11.741 11.741 0 0 0 .257-5.152 8.535 8.535 0 0 0-1.278-3.511 5.234 5.234 0 0 0-2.763-2.12z" transform="translate(-139.743 -114.225)" style="fill:#9edbf0"/>
                <path data-name="패스 1463" d="M691.994 560.683s-8.558 8.508-5.994 13.155c0 0 1.219 5.232 6.6 1.981 0 0 3.911-5 4.369-8.736 0 0-.458-5.079-2.642-5.13 0 0-8.177 6.908-6.146 11.529 0 0 .863 2.413 3.911-.559 0 0 3.835-6.018 2.794-7.212 0 0-2.605.279-3.894 4.825 0 0 .823-5.877 3.131-5.993 0 0 3.958-.23-.2 7.162 0 0-2.032 4.267-4.978 3.2 0 0-3.1-1.259-.863-6.267 0 0 3.86-6.1 5.232-6.685 0 0 2.387-1.447 3.657 2.336 0 0 1.184 5.535-2.235 9.448a5.275 5.275 0 0 1-4.774 3.453s-3.835.279-4.8-4.724c0 0-.406-4.038 3.378-8.939.001.001 1.778-2.412 3.454-2.844z" transform="translate(-139.949 -114.525)" style="fill:#2d3262"/>
                <path data-name="패스 1464" d="M472.576 478.027s10.2 2.148 5.8 7.131c0 0-4.789 5.495-26.286 10.018 0 0-33.2 8.2-66.05-2.688l-26.081-17.225 9.083-22.613 29.341 1.938 41.931 5.973 32.257 17.466" transform="translate(-73.526 -92.459)" style="fill:#5ba4b5"/>
                <path data-name="패스 1465" d="M383.3 592.187c-1.257 5.748 1.726 12.1.469 17.852-3.86-.968-12.29.474-14.651 3.758s-3.1 7.563-2.826 11.637a32.781 32.781 0 0 0 .573 4.2 7.7 7.7 0 0 0 8.935 6.066 133.341 133.341 0 0 0 17.805-4.276c6.98-2.293 16.849-5.241 23.294-9.975a5 5 0 0 0 1.767-5.539c-2.657-8.4-5.7-17.216-8.822-24.8a242.791 242.791 0 0 0-26.544 1.077z" transform="translate(-74.807 -120.733)" style="fill:#4246dc"/>
                <path data-name="패스 1466" d="M350.668 472.194c-.591 5.694 3.872 11.41 3.368 17.091a27.358 27.358 0 0 0-5.126-.786 29.635 29.635 0 0 0-3.737-.119 10.582 10.582 0 0 0-6.8 3.589 15.367 15.367 0 0 0-3.56 5.99 21.957 21.957 0 0 0-1.053 7.989 8.006 8.006 0 0 0 8.679 7.311c13.994-1.2 27.543-6.422 37.953-15.025a28.488 28.488 0 0 0-8.6-25.376 6.105 6.105 0 0 0-1.159-.916 7.252 7.252 0 0 0-2.33-.688 36.956 36.956 0 0 0-8.969-.842c-3.134.217-6.126 1.224-8.666 1.782z" transform="translate(-68.166 -96.077)" style="fill:#4246dc"/>
                <path data-name="패스 1467" d="M358.533 487.986s21.5 6.259 26.485 2.269l-2.751-12.02-26.216-2.094z" transform="translate(-72.727 -97.257)" style="fill:#2e38af"/>
                <path data-name="패스 1468" d="M388.124 603.055s.674 4.528.426 5.513c0 0 17.784 1.256 30.065-4.806l-2.094-5.945z" transform="translate(-79.278 -122.11)" style="fill:#2e38af"/>
                <path data-name="패스 1469" d="M388.909 616.4a22.328 22.328 0 0 1 12.231 5.186s-6.44-8.033-12.231-5.186z" transform="translate(-79.439 -125.782)" style="fill:#2e38af"/>
                <path data-name="패스 1470" d="M359.964 496.371a22.332 22.332 0 0 1 12.232 5.186s-6.441-8.036-12.232-5.186z" transform="translate(-73.526 -101.264)" style="fill:#2e38af"/>
                <g data-name="그룹 473">
                    <g data-name="그룹 472" style="clip-path:url(#gzp555kzvb)" transform="translate(305.888 346.766)">
                        <path data-name="패스 1471" d="M385.528 451.906c7.414 9.89 19.3 16.768 31.954 19.637 5.973 1.354 13.063 1.586 17.144-2.387 3.208-3.123 3.522-8.083 1.962-12.26s-4.7-7.74-7.871-11.124a15.67 15.67 0 0 0-3.235-2.847c-1.964-1.185-4.342-1.541-6.6-2.091-7.646-1.864-15.219-6.267-22.807-4.739-7.605 1.532-14.419 10.646-10.547 15.811z" transform="translate(-384.408 -435.778)" style="fill:#1fb4b0"/>
                        <path data-name="패스 1472" d="M391.254 453.953a68.5 68.5 0 0 0 34.65 16.863" transform="translate(-385.806 -439.491)" style="strokeWidth:.796px;stroke:#c6c6c6;stroke-miterlimit:10;fill:none"/>
                    </g>
                </g>
                <g data-name="그룹 475">
                    <g data-name="그룹 474" style="clip-path:url(#lsdvwt1vfc)" transform="translate(272.883 318.934)">
                        <path data-name="패스 1474" d="M345.924 466.325c.863 2.3 3.8 2.846 6.246 3.1 11.714 1.245 23.6 4 35.124 1.429-.065 0-.13 0 .031.018a46.969 46.969 0 0 0-.621-18.154c-1-4.268-2.567-8.886-.706-12.854 3.309-.9 6.391 1.8 8.911 4.129 6.932 6.4 15.9 11.685 25.332 10.988a82.864 82.864 0 0 0 8.084-37.23c-9.464-1.72-18.511-5.28-27.954-7.108a106.783 106.783 0 0 1-11.127-2.284c-3.434-1.054-6.66-2.68-10.011-3.971a53.979 53.979 0 0 0-21.993-3.526c-2.667.132-5.438.5-7.657 1.989a12.676 12.676 0 0 0-4.356 5.829c-2.406 5.786-2.4 12.254-2.234 18.518a350.044 350.044 0 0 0 2.939 38.56c.068.004.128.004-.008.567z" transform="translate(-342.93 -400.802)" style="fill:#35ddd8"/>
                        <path data-name="패스 1475" d="M355.259 472.96a381.683 381.683 0 0 1-4.655-39.08 45.711 45.711 0 0 1 .146-10.436 24.389 24.389 0 0 1 4.651-10.793 13.568 13.568 0 0 1 5.94-4.762c4.779-1.727 9.959.626 14.582 2.737A181.224 181.224 0 0 0 419.55 424.2c5.218.922 10.57 1.615 15.8.769" transform="translate(-344.451 -402.127)" style="stroke:#fff;strokeWidth:.796px;stroke-miterlimit:10;fill:none"/>
                        <path data-name="패스 1476" d="m364.952 476.981-1.521-35.056c-.181-4.149-.352-8.382.777-12.379s3.8-7.789 7.717-9.172c5.483-1.935 11.3 1.223 16.458 3.911a120.316 120.316 0 0 0 45.384 13.155" transform="translate(-347.09 -404.678)" style="stroke:#fff;strokeWidth:.796px;stroke-miterlimit:10;fill:none"/>
                        <path data-name="패스 1477" d="M376.512 479.754a167.238 167.238 0 0 1-1.773-35.266c.21-3.77.762-7.962 3.684-10.353 2.582-2.112 6.37-2.147 9.515-1.035s5.834 3.193 8.579 5.088c9.235 6.372 19.883 10.957 31.054 12.005" transform="translate(-349.374 -407.251)" style="strokeWidth:.796px;stroke:#fff;stroke-miterlimit:10;fill:none"/>
                        <path data-name="패스 1478" d="M386.218 481.6a168.229 168.229 0 0 1-.894-25.94c.133-3.116.4-6.371 2.038-9.023s5.091-4.448 7.957-3.217a11.187 11.187 0 0 1 2.464 1.666 47.065 47.065 0 0 0 26.545 10.118" transform="translate(-351.558 -409.427)" style="strokeWidth:.796px;stroke:#fff;stroke-miterlimit:10;fill:none"/>
                    </g>
                </g>
                <g data-name="그룹 477">
                    <g data-name="그룹 476" style="clip-path:url(#mdd0imszyd)" transform="translate(290.893 345.904)">
                        <path data-name="패스 1480" d="M473.313 447.992c2.181 9.319-4.8 18.924-11.907 25.332s-15.9 10.624-23.553 16.372c-3.6 2.708-7.064 5.91-8.739 10.095-1.241 3.1-1.41 6.506-1.549 9.841-.71 17-1.02 34.007-1.209 50.914-10.7 7.666-24.374 9.527-37.44 11.143-7.922.98-16.5 1.832-22.929-1.99-1.4-14.743.906-29.566 3.465-44.152.855-4.876 1.761-9.815 3.888-14.285 4.651-9.776 12.388-18.339 19.593-26.419 6.427-7.208 12.9-13.744 15.246-23.318 1.264-6.047 2.851-12.626 7.768-16.365a25.231 25.231 0 0 1 7.552-3.481c13.561-4.466 27.988-8.283 41.982-5.453 2.681.542 5.627 1.583 6.757 4.074 1.062 2.336.451 5.025 1.075 7.692z" transform="translate(-365.563 -434.809)" style="fill:#35ddd8"/>
                        <path data-name="패스 1481" d="M372.643 572.752c-1.4-14.527.368-29.18 2.981-43.538a70.317 70.317 0 0 1 4.2-15.553c4.692-10.794 13.926-18.793 22.316-27.046 16.423-16.155 30.88-35.262 36.762-57.536" transform="translate(-366.909 -433.548)" style="strokeWidth:.796px;stroke:#fff;stroke-miterlimit:10;fill:none"/>
                        <path data-name="패스 1482" d="M451.959 429.275c-.038 9.211-4.946 17.613-9.77 25.46-4.162 6.769-8.413 13.559-13.887 19.321-6.379 6.713-14.268 11.868-20.52 18.7-9.627 10.517-14.825 24.479-17.051 38.562s-1.689 28.438-1.147 42.686" transform="translate(-370.372 -433.588)" style="strokeWidth:.796px;stroke:#fff;stroke-miterlimit:10;fill:none"/>
                        <path data-name="패스 1483" d="M465.831 428.645a136.43 136.43 0 0 1-37.947 62.939c-4.169 3.913-8.608 7.588-12.167 12.063-9.632 12.113-11.675 28.579-11.256 44.048a172.423 172.423 0 0 0 2.5 24.958" transform="translate(-373.498 -433.46)" style="strokeWidth:.796px;stroke:#fff;stroke-miterlimit:10;fill:none"/>
                        <path data-name="패스 1484" d="M476.861 432.961a43.942 43.942 0 0 1-3.835 23.776c-10.043 21.374-35.9 32.139-45.2 53.848-4.8 11.2-4.491 23.842-4.086 36.023.273 8.2.554 16.4 1.231 24.57" transform="translate(-377.404 -434.341)" style="strokeWidth:.796px;stroke:#fff;stroke-miterlimit:10;fill:none"/>
                        <path data-name="패스 1485" d="M436.172 544.213a84.381 84.381 0 0 1 1-11.481c1.246-7.6 3.981-15.114 8.993-20.954" transform="translate(-379.986 -450.441)" style="strokeWidth:.796px;stroke:#fff;stroke-miterlimit:10;fill:none"/>
                        <path data-name="패스 1486" d="m436.752 591.8-.543-27.709c-.075-3.848-.15-7.708-.049-11.557" transform="translate(-379.973 -458.766)" style="strokeWidth:.796px;stroke:#fff;stroke-miterlimit:10;fill:none"/>
                    </g>
                </g>
                <path data-name="패스 1488" d="M443.467 355.449c-5.152-1.872-11.071-.334-15.573 2.793s-7.817 7.659-10.805 12.254a178.357 178.357 0 0 0-18.066 36.687 115.311 115.311 0 0 0 46.03 29.932 44.566 44.566 0 0 0 14.384 2.961c6.393.02 12.62-2.19 18.243-5.233 5.525-2.99 11.2-8.111 10.928-14.385l-2.277-29.266c-.434-5.569-.9-11.272-3.227-16.35-3.685-8.045-11.645-13.463-20.049-16.231-6.555-2.161-13.927-1.105-19.588-3.162z" transform="translate(-81.505 -72.438)" style="fill:#4246dc"/>
                <path data-name="패스 1489" d="M501.914 433.47a17.877 17.877 0 0 1 .289 4.794 16.314 16.314 0 0 1-1.154 3.422c-1.441 3.1-5.4 12.054-31.613 15.94l-4.088-10.115s6.9.195 29.217-6.91c2.362-.752 3.89-1.645 7.349-7.131z" transform="translate(-95.052 -88.541)" style="fill:#353da5"/>
                <path data-name="패스 1490" d="M474.853 394.7s-5.113 18.018-4.842 28.736l-29.7-5.232 6.5-6.031s7.116-.888 9.309-1.309c2.827-.542 9.215-2.333 11.875-2.885a2.148 2.148 0 0 0 1.521-1.213c1.223-2.655 3.849-10.037 5.337-12.066z" transform="translate(-89.939 -80.622)" style="fill:#353da5"/>
                <path data-name="패스 1491" d="M436.046 380.247a115.839 115.839 0 0 0-1.641 23.889l-5.147-5s3.993-12.263 6.788-18.889z" transform="translate(-87.681 -77.67)" style="fill:#353da5"/>
                <path data-name="패스 1492" d="M275.181 238.2a270.957 270.957 0 0 0 19.891 50.342c.049-.486.716-.551 1.2-.564a7.988 7.988 0 0 0 3.41-1.132 67.856 67.856 0 0 0 14.945-10.6 12.413 12.413 0 0 0 3.836-5.452 290.535 290.535 0 0 0-43.316-31.538c-.02-.04-.047-.079.034-1.056z" transform="translate(-56.198 -48.654)" style="fill:#fff"/>
                <path data-name="패스 1493" d="M219.067 190.715a88.1 88.1 0 0 1 12.978 8.131 9.552 9.552 0 0 1-3.578 3.881 18.983 18.983 0 0 1-4.859 2.077c-1.672-4.622-3.168-9.309-4.412-14.065-.012.039-.021.078-.129-.024z"/>
                <path data-name="패스 1494" d="M296.992 292.833a1290.54 1290.54 0 0 0 143.1 162.448 22.677 22.677 0 0 0 20.3-19.629c-47.065-54.368-94.13-108.736-141.735-162.26-5.938 1.108-12.139 2.334-16.861 6.1s-6.877 10.544-4.804 13.341z" transform="translate(-60.503 -55.843)" style="fill:#9f83e5"/>
                <path data-name="패스 1495" d="M297.475 287.986c-1.446 3.036-1.728 6.149-.483 7.828a1290.54 1290.54 0 0 0 143.1 162.448 20.454 20.454 0 0 0 5.325-1.12z" transform="translate(-60.503 -58.824)" style="fill:#816bc6"/>
                <path data-name="패스 1496" d="M473.4 411.174c-17.907 4.572-36.343 8.488-55.116 8.773h.208c-.032 8 3.533 15.981 10.115 22.156 18.344 1.225 37.979 2.239 53.979-5.018 1.946-.882 3.887-1.943 4.942-3.518a9.069 9.069 0 0 0 1.121-5.016l.179-7.2c.084-3.411-.086-7.3-3.337-9.522-3.846-2.622-9.617-1.288-12.091-.655z" transform="translate(-85.439 -83.802)" style="fill:#4246dc"/>
                <ellipse data-name="타원 26" cx="20.932" cy="25.862" rx="20.932" ry="25.862" transform="translate(347.013 214.493)"/>
                <ellipse data-name="타원 27" cx="22.281" cy="25.066" rx="22.281" ry="25.066" transform="translate(355.775 215.842)"/>
                <path data-name="패스 1497" d="M402.7 421.335c-2.719 3.371-2.332 8.29-1.018 12.417a21.245 21.245 0 0 0 5.347 9.149 12.08 12.08 0 0 0 9.766 3.437 15.732 15.732 0 0 0 6.223-2.686 13.242 13.242 0 0 0 4.533-4.388 11.468 11.468 0 0 0 1.014-6.955c-.62-5.013-3.383-9.942-7.882-12.239a23.52 23.52 0 0 0-6.536-1.911 15.211 15.211 0 0 0-4.478-.349 10.653 10.653 0 0 0-6.969 3.525z" transform="translate(-81.842 -85.33)" style="fill:#feabdf"/>
                <path data-name="패스 1498" d="M369.3 377.727a13.057 13.057 0 0 0-3.812 9.6 22.388 22.388 0 0 0 2.843 10.14 23.865 23.865 0 0 0 5.859 7.5 8.223 8.223 0 0 0 3.485 1.841 9.063 9.063 0 0 0 3.254-.083 14.335 14.335 0 0 0 6.225-2.323c3.6-2.646 4.833-7.722 3.771-12.059s-4.055-7.984-7.515-10.808a18.857 18.857 0 0 0-6.9-3.823c-2.56-.68-5.852-1.257-7.21.015z" transform="translate(-74.654 -77.001)" style="fill:#feabdf"/>
                <path data-name="패스 1499" d="M455.881 335.389a186.578 186.578 0 0 1-1.145 17.71 17.13 17.13 0 0 0 16.668 1.523 2.291 2.291 0 0 0 1.1-.84 2.441 2.441 0 0 0 .217-1.2l.236-22.9-8.117-.439c-2.245-.121-4.615-.217-6.609.822s-3.353 3.652-2.35 5.324z" transform="translate(-92.885 -67.237)" style="fill:#feabdf"/>
                <path data-name="패스 1500" d="M455.607 343.958s8.725 3.118 17.478-10.972v-11.654h-15.809z" transform="translate(-93.063 -65.635)" style="fill:#dd8ec3"/>
                <path data-name="패스 1501" d="M441.007 293.992c-2.515 7.858-5.013 16.175-3.245 24.235a14.3 14.3 0 0 0 2.618 5.941 13.764 13.764 0 0 0 3.12 2.761 21.216 21.216 0 0 0 30.367-7.349 10.03 10.03 0 0 0 7.315-4.023c1.286-1.757 1.862-4.441.323-5.981a5.945 5.945 0 0 0-6.726-1.108c-.265-3.763-2.6-5.807-5.4-8.33a34.109 34.109 0 0 0-9.72-5.691 31.931 31.931 0 0 0-9.359-2.7c-3.246-.3-7.712-.823-9.307 2.215a.413.413 0 0 0 .664.132c.178-.203.051-.586-.65-.102z" transform="translate(-89.296 -59.544)" style="fill:#feabdf"/>
                <g data-name="그룹 479">
                    <g data-name="그룹 478" style="clip-path:url(#o6h7qlcvre)" transform="translate(347.871 231.43)">
                        <ellipse data-name="타원 28" cx="14.265" cy="12.567" rx="14.265" ry="12.567" transform="rotate(-59.366 -3.976 9.435)"/>
                        <ellipse data-name="타원 29" cx="17.049" cy="17.529" rx="17.049" ry="17.529" transform="rotate(-4.44 -193.002 -210.937)"/>
                    </g>
                </g>
                <path data-name="패스 1503" d="M485.142 315.746s3.251-2.322 4.266 0c0 0 1.831 4.1-5.687 6.334a12.312 12.312 0 0 0 1.421-6.334z" transform="translate(-98.805 -64.284)" style="fill:#dd8ec3"/>
                <g data-name="그룹 480">
                    <path data-name="패스 1504" d="M262.213 84.38A982.372 982.372 0 0 1 157.1 108.017c-1.782-3.422-2.672-6.413-4.24-9.425a32.351 32.351 0 0 1-1.794-4.514c-1.5-4.618-3-8.439-4.2-12.6Q200.97 69.834 254.2 54.541q3.42 15.223 8.327 30.12c-.046.026-.092.051-.314-.281z" transform="translate(-29.999 -11.141)" style="fill:#9f83e5"/>
                    <path data-name="패스 1505" d="M267.215 75.188A982.181 982.181 0 0 1 162.1 98.826c-1.782-3.422-2.672-6.413-4.24-9.425a32.4 32.4 0 0 1-1.794-4.515c-1.5-4.617-3-8.439-4.2-12.6q54.1-11.642 107.332-26.935 3.418 15.224 8.327 30.121c-.042.028-.088.049-.31-.284z" transform="translate(-31.021 -9.263)" style="fill:#4246dc"/>
                    <path data-name="패스 1506" d="m175.922 79.482 3.032 3.557a1.506 1.506 0 0 0 1.3.522l4.65-.481a1.507 1.507 0 0 1 1.439 2.289L183.9 89.35a1.509 1.509 0 0 0-.094 1.4l1.895 4.273a1.507 1.507 0 0 1-1.732 2.076L179.424 96a1.508 1.508 0 0 0-1.361.344l-3.478 3.122a1.507 1.507 0 0 1-2.51-1.005l-.362-4.66a1.5 1.5 0 0 0-.747-1.187l-4.044-2.344a1.507 1.507 0 0 1 .181-2.7l4.32-1.785a1.508 1.508 0 0 0 .9-1.077l.98-4.57a1.507 1.507 0 0 1 2.619-.656z" transform="translate(-33.942 -16.127)" style="fill:#35ddd8"/>
                    <path data-name="패스 1507" d="m205.593 73.029 3.032 3.557a1.507 1.507 0 0 0 1.3.522l4.65-.481a1.507 1.507 0 0 1 1.439 2.289l-2.445 3.984a1.507 1.507 0 0 0-.093 1.4l1.894 4.273a1.507 1.507 0 0 1-1.732 2.076l-4.544-1.1a1.506 1.506 0 0 0-1.36.344l-3.479 3.122a1.507 1.507 0 0 1-2.51-1.005l-.362-4.66a1.508 1.508 0 0 0-.746-1.188l-4.045-2.343a1.508 1.508 0 0 1 .181-2.7l4.32-1.784a1.506 1.506 0 0 0 .9-1.077l.98-4.571a1.507 1.507 0 0 1 2.62-.658z" transform="translate(-40.003 -14.808)" style="fill:#35ddd8"/>
                    <path data-name="패스 1508" d="m234.294 66.114 3.032 3.557a1.508 1.508 0 0 0 1.3.522l4.65-.481A1.508 1.508 0 0 1 244.717 72l-2.447 3.983a1.507 1.507 0 0 0-.093 1.4l1.894 4.273a1.507 1.507 0 0 1-1.732 2.076l-4.544-1.1a1.506 1.506 0 0 0-1.36.344l-3.478 3.124a1.508 1.508 0 0 1-2.51-1.005l-.361-4.66a1.508 1.508 0 0 0-.747-1.187l-4.044-2.348a1.507 1.507 0 0 1 .18-2.7l4.321-1.785a1.508 1.508 0 0 0 .9-1.077l.979-4.57a1.507 1.507 0 0 1 2.619-.654z" transform="translate(-45.865 -13.396)" style="fill:#35ddd8"/>
                    <path data-name="패스 1509" d="m262.124 58.2 3.032 3.557a1.508 1.508 0 0 0 1.3.522l4.65-.481a1.508 1.508 0 0 1 1.439 2.289l-2.445 3.981a1.507 1.507 0 0 0-.093 1.4l1.893 4.272a1.507 1.507 0 0 1-1.732 2.076l-4.544-1.1a1.508 1.508 0 0 0-1.36.344l-3.479 3.122a1.507 1.507 0 0 1-2.51-1.005l-.362-4.66a1.505 1.505 0 0 0-.746-1.187l-4.045-2.344a1.507 1.507 0 0 1 .181-2.7l4.32-1.785a1.5 1.5 0 0 0 .9-1.077l.98-4.57a1.507 1.507 0 0 1 2.621-.654z" transform="translate(-51.55 -11.779)" style="fill:#35ddd8"/>
                </g>
                <path data-name="패스 1510" d="M36.277 33.55A122.087 122.087 0 0 0 55.6 29.692" transform="translate(-7.41 -6.065)" style="strokeWidth:.398px;stroke:#000;stroke-miterlimit:10;fill:none"/>
                <path data-name="패스 1511" d="m35.614 47.63 55.811-8.075" transform="translate(-7.275 -8.08)" style="strokeWidth:.398px;stroke:#000;stroke-miterlimit:10;fill:none"/>
                <path data-name="패스 1515" d="M57.065 116.64a98.2 98.2 0 0 0 24.381-4.715" transform="translate(-11.656 -22.862)" style="strokeWidth:.398px;stroke:#000;stroke-miterlimit:10;fill:none"/>
                <path data-name="패스 1516" d="m61.151 128.835 8.67-1.617" transform="translate(-12.491 -25.986)" style="strokeWidth:.398px;stroke:#000;stroke-miterlimit:10;fill:none"/>
                <path data-name="패스 1517" d="m84.361 150.615-.648 4.318" transform="translate(-17.099 -30.765)" style="strokeWidth:.398px;stroke:#000;stroke-miterlimit:10;fill:none"/>
                <path data-name="패스 1518" d="M141.283 210.129a848.504 848.504 0 0 0 9.043-2.9c20.513-6.743 40.478-15.028 60.421-23.306" transform="translate(-28.859 -37.569)" style="strokeWidth:.398px;stroke:#000;stroke-miterlimit:10;fill:none"/>
                <path data-name="패스 1519" d="M225.039 182.749a2.836 2.836 0 0 1 2.673 1 1.748 1.748 0 0 1-.58 2.546" transform="translate(-45.967 -37.323)" style="strokeWidth:.398px;stroke:#000;stroke-miterlimit:10;fill:none"/>
                <path data-name="패스 1520" d="M131.055 178.274a23.018 23.018 0 0 1-2.285-8.981c-.081-1.779.1-3.716 1.294-5.042a6.088 6.088 0 0 1 5.207-1.559c4.431.466 8.258 3.447 12.659 4.141a5.41 5.41 0 0 0 3-.22c2.054-.9 2.7-3.451 3.038-5.666A174.7 174.7 0 0 0 156 131.2" transform="translate(-26.299 -26.798)" style="strokeWidth:.398px;stroke:#000;stroke-miterlimit:10;fill:none"/>
                <path data-name="패스 1521" d="M132.483 171.716a3.472 3.472 0 0 0 .274 1.892" transform="translate(-27.054 -35.075)" style="strokeWidth:.398px;stroke:#000;stroke-miterlimit:10;fill:none"/>
                <path data-name="패스 1522" d="m136.911 178.183.542 1.084" transform="translate(-27.966 -36.396)" style="strokeWidth:.398px;stroke:#000;stroke-miterlimit:10;fill:none"/>
                <path data-name="패스 1523" d="m142.7 184.992.542 1.084" transform="translate(-29.148 -37.787)" style="strokeWidth:.398px;stroke:#000;stroke-miterlimit:10;fill:none"/>
                <path data-name="패스 1524" d="m149.182 193.454.815.263" transform="translate(-30.472 -39.515)" style="strokeWidth:.398px;stroke:#000;stroke-miterlimit:10;fill:none"/>
                <path data-name="패스 1525" d="m154.975 198.593.811 1.085" transform="translate(-31.655 -40.565)" style="strokeWidth:.398px;stroke:#000;stroke-miterlimit:10;fill:none"/>
                <path data-name="패스 1526" d="m161.469 204.364.553.8" transform="translate(-32.982 -41.744)" style="strokeWidth:.398px;stroke:#000;stroke-miterlimit:10;fill:none"/>
                <path data-name="패스 1527" d="m164.845 207.763.54.275" transform="translate(-33.671 -42.438)" style="strokeWidth:.398px;stroke:#000;stroke-miterlimit:10;fill:none"/>
                <path data-name="패스 1528" d="M164.145 131.205a6.393 6.393 0 0 0 1.084 2.437" transform="translate(-33.528 -26.8)" style="strokeWidth:.398px;stroke:#000;stroke-miterlimit:10;fill:none"/>
                <path data-name="패스 1529" d="m170.953 143.8.813.813" transform="translate(-34.919 -29.373)" style="strokeWidth:.398px;stroke:#000;stroke-miterlimit:10;fill:none"/>
                <path data-name="패스 1530" d="m177.5 151.945.272.812" transform="translate(-36.256 -31.036)" style="strokeWidth:.398px;stroke:#000;stroke-miterlimit:10;fill:none"/>
                <path data-name="패스 1531" d="m185.592 159.8.542 1.355" transform="translate(-37.909 -32.641)" style="strokeWidth:.398px;stroke:#000;stroke-miterlimit:10;fill:none"/>
                <path data-name="패스 1532" d="M192.067 166.936a3.172 3.172 0 0 1 1.34 1.369" transform="translate(-39.232 -34.098)" style="strokeWidth:.398px;stroke:#000;stroke-miterlimit:10;fill:none"/>
                <path data-name="패스 1533" d="m198.528 174.779 1.084.812" transform="translate(-40.551 -35.7)" style="strokeWidth:.398px;stroke:#000;stroke-miterlimit:10;fill:none"/>
                <path data-name="패스 1534" d="m204.656 183.63.541.271" transform="translate(-41.803 -37.508)" style="strokeWidth:.398px;stroke:#000;stroke-miterlimit:10;fill:none"/>
                <path data-name="패스 1535" d="M211.13 189.083a1.145 1.145 0 0 0 .247 1.088" transform="translate(-43.116 -38.622)" style="strokeWidth:.398px;stroke:#000;stroke-miterlimit:10;fill:none"/>
                <path data-name="패스 1536" d="m162.783 179.205.271.271" transform="translate(-33.25 -36.605)" style="strokeWidth:.398px;stroke:#000;stroke-miterlimit:10;fill:none"/>
                <path data-name="패스 1537" d="M169.251 185.673v.271" transform="translate(-34.571 -37.926)" style="strokeWidth:.398px;stroke:#000;stroke-miterlimit:10;fill:none"/>
                <path data-name="패스 1538" d="m175.728 191.107.816.537" transform="translate(-35.894 -39.036)" style="strokeWidth:.398px;stroke:#000;stroke-miterlimit:10;fill:none"/>
                <path data-name="패스 1539" d="m182.2 197.234.816.538" transform="translate(-37.215 -40.287)" style="strokeWidth:.398px;stroke:#000;stroke-miterlimit:10;fill:none"/>
                <path data-name="패스 1540" d="M71.875 166.784a2.307 2.307 0 0 1 1.082 4.433" transform="translate(-14.681 -34.066)" style="strokeWidth:.398px;stroke:#000;stroke-miterlimit:10;fill:none"/>
                <path data-name="패스 1541" d="M76.718 164.523a4.741 4.741 0 0 0 .3 3.617 2.3 2.3 0 0 0 3.2.805" transform="translate(-15.627 -33.606)" style="strokeWidth:.398px;stroke:#000;stroke-miterlimit:10;fill:none"/>
                <path data-name="패스 1542" d="M219.746 194.466a3.539 3.539 0 0 0 3.73 1.8" transform="translate(-44.885 -39.722)" style="strokeWidth:.398px;stroke:#000;stroke-miterlimit:10;fill:none"/>
                <path data-name="패스 1543" d="m223.51 192.208 1.469 3.385a5.161 5.161 0 0 1 .59 2.245 1.765 1.765 0 0 1-1.318 1.715c-.915.138-1.658-.69-2.21-1.433" transform="translate(-45.354 -39.261)" style="strokeWidth:.398px;stroke:#000;stroke-miterlimit:10;fill:none"/>
                <path data-name="패스 1544" d="M240.932 245.575a16.138 16.138 0 0 0 10.517 2.733 31.964 31.964 0 0 0 4.486-.853c2.947-.707 5.984-1.456 8.41-3.273s4.1-5 3.22-7.9" transform="translate(-49.213 -48.263)" style="strokeWidth:.398px;stroke:#000;stroke-miterlimit:10;fill:none"/>
                <path data-name="패스 1545" d="M268.821 245.776a7.832 7.832 0 0 1 1.872 2.7 5.372 5.372 0 0 0 4.126 2.742 3.549 3.549 0 0 0 3.714-2.853c.189-1.618-.962-3.053-2.041-4.274l-3.181-3.6" transform="translate(-54.91 -49.123)" style="strokeWidth:.398px;stroke:#000;stroke-miterlimit:10;fill:none"/>
                <path data-name="패스 1546" d="M271.928 244.721a9.794 9.794 0 0 0 5.635 5.492" transform="translate(-55.544 -49.987)" style="strokeWidth:.398px;stroke:#000;stroke-miterlimit:10;fill:none"/>
                <path data-name="패스 1547" d="M242.409 232.236a6 6 0 0 0 1.81 2.783c.158.136.369.272.562.19s.242-.333.251-.543a5.741 5.741 0 0 0-.3-2.087c-.175-.511-.508-1.061-1.045-1.126s-.986.781-.5 1.026" transform="translate(-49.515 -47.276)" style="strokeWidth:.398px;stroke:#000;stroke-miterlimit:10;fill:none"/>
                <path data-name="패스 1548" d="M259.233 226.606a4.938 4.938 0 0 1 .662 1.718 2.2 2.2 0 0 0 1.023 1.477c.562.259 1.4-.121 1.346-.737a1.383 1.383 0 0 0-.311-.654l-1.668-2.329" transform="translate(-52.951 -46.179)" style="strokeWidth:.398px;stroke:#000;stroke-miterlimit:10;fill:none"/>
                <path data-name="패스 1549" d="M256.53 238.383a2.023 2.023 0 0 1 1.694-2.2 5.877 5.877 0 0 1 3.025.438" transform="translate(-52.391 -48.229)" style="strokeWidth:.398px;stroke:#000;stroke-miterlimit:10;fill:none"/>
                <g data-name="그룹 482">
                    <path data-name="패스 1550" d="m352.5 208.674.766 15.727" transform="translate(-72.002 -42.624)" style="strokeWidth:.398px;stroke:#000;stroke-miterlimit:10;fill:none"/>
                    <g data-name="그룹 481">
                        <path data-name="패스 1551" d="M350.578 212.013a9.11 9.11 0 0 1 5.783-2.891 1.6 1.6 0 0 1 2.042 1.741c.329 3.309-4.494 7.156-7.239 9.034 2.77-1.912 9.442-3.236 12.8-2.938a2 2 0 0 1 1.462.586c.585.761-.066 1.837-.742 2.517-2.75 2.766-10.789 6.262-14.614 7.026" transform="translate(-71.505 -42.711)" style="strokeWidth:.796px;stroke:#000;stroke-miterlimit:10;fill:none"/>
                        <path data-name="패스 1552" d="M384.629 200.586a57.8 57.8 0 0 0-8.556 6.437c-.8.723-1.642 1.758-1.236 2.753a2.111 2.111 0 0 0 .913.949c1.714 1.038 3.875.868 5.859.594a85 85 0 0 0 8.858-1.7" transform="translate(-76.543 -40.972)" style="strokeWidth:.796px;stroke:#000;stroke-miterlimit:10;fill:none"/>
                        <path data-name="패스 1553" d="m323.3 239.43 4.269-19.4a40.164 40.164 0 0 1 10.212 12.428" transform="translate(-66.037 -44.943)" style="strokeWidth:.398px;stroke:#000;stroke-miterlimit:10;fill:none"/>
                        <path data-name="패스 1554" d="M323.209 234.441a23.717 23.717 0 0 0 10.579-3.882" transform="translate(-66.019 -47.094)" style="strokeWidth:.796px;stroke:#000;stroke-miterlimit:10;fill:none"/>
                    </g>
                </g>
                <path data-name="패스 1555" d="M250.354 284.757a5.636 5.636 0 0 0-.858 2.924c.085 1.026.982 2.056 2 1.884a2.157 2.157 0 0 0 1.512-1.608" transform="translate(-50.96 -58.165)" style="strokeWidth:.398px;stroke:#000;stroke-miterlimit:10;fill:none"/>
                <path data-name="패스 1556" d="M256.752 292.213a26.984 26.984 0 0 0 11.125 5.861" transform="translate(-52.444 -59.688)" style="strokeWidth:.398px;stroke:#000;stroke-miterlimit:10;fill:none"/>
                <path data-name="패스 1557" d="M277.515 300.539a2.263 2.263 0 0 0 1.432 4.1 2.3 2.3 0 0 0 2.119-2.195 2.221 2.221 0 0 0-2.121-2.159" transform="translate(-56.494 -61.337)" style="strokeWidth:.398px;stroke:#000;stroke-miterlimit:10;fill:none"/>
                <path data-name="패스 1558" d="M281.671 293.335c2.62-2.742 2.947-6.886 3.129-10.674" transform="translate(-57.534 -57.737)" style="strokeWidth:.398px;stroke:#000;stroke-miterlimit:10;fill:none"/>
                <path data-name="패스 1559" d="M284.765 274.046a2.044 2.044 0 1 0 .311 4.034" transform="translate(-57.722 -55.976)" style="strokeWidth:.398px;stroke:#000;stroke-miterlimit:10;fill:none"/>
                <path data-name="패스 1560" d="m271.733 307.947-13.359 8.261" transform="translate(-52.776 -62.901)" style="strokeWidth:.398px;stroke:#000;stroke-miterlimit:10;fill:none"/>
                <path data-name="패스 1561" d="m248.6 321.152 1.33 3.531" transform="translate(-50.779 -65.599)" style="strokeWidth:.398px;stroke:#000;stroke-miterlimit:10;fill:none"/>
                <path data-name="패스 1562" d="m250.273 323.2 1.354-1.354" transform="translate(-51.121 -65.74)" style="strokeWidth:.398px;stroke:#000;stroke-miterlimit:10;fill:none"/>
                <path data-name="패스 1563" d="M251.8 319.455a12.2 12.2 0 0 0 .636 3.541" transform="translate(-51.432 -65.252)" style="strokeWidth:.398px;stroke:#000;stroke-miterlimit:10;fill:none"/>
                <path data-name="패스 1564" d="M283.051 307.15a129.777 129.777 0 0 1 6.352 12.806" transform="translate(-57.816 -62.739)" style="strokeWidth:.398px;stroke:#000;stroke-miterlimit:10;fill:none"/>
                <path data-name="패스 1565" d="M292.348 327.37c-.94.287-.918 1.781-.152 2.4a3.875 3.875 0 0 0 2.828.494" transform="translate(-59.569 -66.869)" style="strokeWidth:.398px;stroke:#000;stroke-miterlimit:10;fill:none"/>
                <path data-name="패스 1566" d="M296.238 326.044a36.737 36.737 0 0 0 13-7.6" transform="translate(-60.51 -65.046)" style="strokeWidth:.398px;stroke:#000;stroke-miterlimit:10;fill:none"/>
                <path data-name="패스 1567" d="M244.711 293.061a25.1 25.1 0 0 1-5.381 6.06" transform="translate(-48.886 -59.861)" style="strokeWidth:.398px;stroke:#000;stroke-miterlimit:10;fill:none"/>
                <path data-name="패스 1568" d="M230.958 300.751c-1.023 0-1.282 1.643-.508 2.312a1.836 1.836 0 0 0 .832.408 1.81 1.81 0 1 0-.538-3.348" transform="translate(-46.98 -61.262)" style="strokeWidth:.398px;stroke:#000;stroke-miterlimit:10;fill:none"/>
                <path data-name="패스 1569" d="M36.281 36.855c6.737-.159 13.792-.4 19.642-3.747" transform="translate(-7.411 -6.763)" style="strokeWidth:.398px;stroke:#fff;stroke-miterlimit:10;fill:none"/>
                <path data-name="패스 1570" d="M34.98 52.079a272.608 272.608 0 0 0 39.374-6.921A51.322 51.322 0 0 1 84 43.309" transform="translate(-7.145 -8.846)" style="strokeWidth:.398px;stroke:#fff;stroke-miterlimit:10;fill:none"/>
                <path data-name="패스 1571" d="M42.114 67.991c15.006 1.2 29.707-4.431 44.733-5.338 7.049-.425 14.607.071 20.617-3.638" transform="translate(-8.602 -12.054)" style="strokeWidth:.398px;stroke:#fff;stroke-miterlimit:10;fill:none"/>
                <path data-name="패스 1572" d="M58.1 118.985a90.627 90.627 0 0 0 16.059-1.256c1.741-.294 3.6-.71 4.783-2.024" transform="translate(-11.868 -23.634)" style="strokeWidth:.398px;stroke:#fff;stroke-miterlimit:10;fill:none"/>
                <path data-name="패스 1573" d="m61.84 132.075 8.384-2.484" transform="translate(-12.631 -26.47)" style="strokeWidth:.398px;stroke:#fff;stroke-miterlimit:10;fill:none"/>
                <path data-name="패스 1574" d="M89.769 152.87c5.8 10.481 13.894 19.479 21.915 28.375 6.66 7.386 13.675 15.023 22.951 18.611" transform="translate(-18.336 -31.225)" style="strokeWidth:.398px;stroke:#fff;stroke-miterlimit:10;fill:none"/>
                <path data-name="패스 1575" d="M142.056 211.658c17.633-3.13 34.249-10.313 50.679-17.439 5.3-2.3 10.727-4.683 14.821-8.753" transform="translate(-29.016 -37.883)" style="strokeWidth:.398px;stroke:#fff;stroke-miterlimit:10;fill:none"/>
                <path data-name="패스 1576" d="m133.2 177.809-.532-9.458c-.064-1.125-.027-2.464.91-3.091a2.4 2.4 0 0 1 2.7.335 17.167 17.167 0 0 1 1.96 2.133 8.222 8.222 0 0 0 11.3.3c2.675-2.59 3.187-6.657 3.23-10.381.1-9.062-1.6-18.426 1.335-27" transform="translate(-27.094 -26.687)" style="strokeWidth:.398px;stroke:#fff;stroke-miterlimit:10;fill:none"/>
                <path data-name="패스 1577" d="M73.935 175.393a4.847 4.847 0 0 0 4.575-2.168" transform="translate(-15.102 -35.383)" style="strokeWidth:.398px;stroke:#fff;stroke-miterlimit:10;fill:none"/>
                <path data-name="패스 1578" d="m223.389 205.123 5.18-3.2" transform="translate(-45.63 -41.246)" style="strokeWidth:.398px;stroke:#fff;stroke-miterlimit:10;fill:none"/>
                <path data-name="패스 1579" d="M343.117 258.84a3.855 3.855 0 0 0-1.615 3.33 1.014 1.014 0 0 0 .182.6 1.181 1.181 0 0 0 .7.324 5.047 5.047 0 0 0 2.636.088 1.738 1.738 0 0 0 1.233-2.051 2.091 2.091 0 0 0-2.058-1.073" transform="translate(-69.754 -52.871)" style="strokeWidth:.398px;stroke:#fff;stroke-miterlimit:10;fill:none"/>
                <path data-name="패스 1580" d="M343.3 264.991q-.2 5.294-.832 10.559" transform="translate(-69.953 -54.127)" style="strokeWidth:.398px;stroke:#fff;stroke-miterlimit:10;fill:none"/>
                <path data-name="패스 1581" d="m339.2 267.367 2.18 2.531a1.271 1.271 0 0 0 .614.469c.4.1.781-.207 1.084-.489l3.859-3.6" transform="translate(-69.286 -54.39)" style="strokeWidth:.398px;stroke:#fff;stroke-miterlimit:10;fill:none"/>
                <path data-name="패스 1582" d="M340.262 279.95a2.915 2.915 0 0 0-.781 1.913" transform="translate(-69.343 -57.183)" style="strokeWidth:.398px;stroke:#fff;stroke-miterlimit:10;fill:none"/>
                <path data-name="패스 1583" d="m342.575 278.9 2.4 2.474" transform="translate(-69.975 -56.969)" style="strokeWidth:.398px;stroke:#fff;stroke-miterlimit:10;fill:none"/>
                <path data-name="패스 1584" d="M257.537 240.245a4.626 4.626 0 0 1 1.267-2.082 1.591 1.591 0 0 1 2.2.111" transform="translate(-52.605 -48.568)" style="strokeWidth:.398px;stroke:#fff;stroke-miterlimit:10;fill:none"/>
                <path data-name="패스 1585" d="M239.025 302.99q3.279-4.073 6.2-8.418" transform="translate(-48.823 -60.169)" style="strokeWidth:.398px;stroke:#fff;stroke-miterlimit:10;fill:none"/>
                <path data-name="패스 1586" d="M255.09 294.473a24.963 24.963 0 0 0 5.179 4.267 10.475 10.475 0 0 0 6.439 1.51" transform="translate(-52.105 -60.149)" style="strokeWidth:.398px;stroke:#fff;stroke-miterlimit:10;fill:none"/>
                <path data-name="패스 1587" d="M256.742 318.287a73.107 73.107 0 0 0 13.629-8.563" transform="translate(-52.442 -63.264)" style="strokeWidth:.398px;stroke:#fff;stroke-miterlimit:10;fill:none"/>
                <path data-name="패스 1588" d="M285.326 308.576a38.666 38.666 0 0 1 7.018 10.572" transform="translate(-58.281 -63.03)" style="strokeWidth:.398px;stroke:#fff;stroke-miterlimit:10;fill:none"/>
                <path data-name="패스 1589" d="M296.891 328.188a27.966 27.966 0 0 0 14.481-6.529" transform="translate(-60.643 -65.702)" style="strokeWidth:.398px;stroke:#fff;stroke-miterlimit:10;fill:none"/>
                <path data-name="패스 1590" d="M285.114 292.218a35.54 35.54 0 0 0 3.309-9.553" transform="translate(-58.238 -57.737)" style="strokeWidth:.398px;stroke:#fff;stroke-miterlimit:10;fill:none"/>
                <path data-name="패스 1591" d="M220.825 362.448q32.842-12.5 66.8-21.756" transform="translate(-45.106 -69.59)" style="strokeWidth:.398px;stroke:#fff;stroke-miterlimit:10;fill:none"/>
                <path data-name="패스 1592" d="m226.055 377.079 18.436-5.012a16.489 16.489 0 0 0 4.677-1.8" transform="translate(-46.174 -75.631)" style="strokeWidth:.398px;stroke:#fff;stroke-miterlimit:10;fill:none"/>
                <path data-name="패스 1593" d="M251.194 417.109a157.028 157.028 0 0 0 32.726-11.846" transform="translate(-51.309 -82.779)" style="strokeWidth:.398px;stroke:#fff;stroke-miterlimit:10;fill:none"/>
                <path data-name="패스 1594" d="M229.272 385.517a459.273 459.273 0 0 0 49.781-17.317" transform="translate(-46.831 -75.21)" style="strokeWidth:.398px;stroke:#fff;stroke-miterlimit:10;fill:none"/>
                <path data-name="패스 1595" d="M194.751 225.108c24.979-14.259 47.915-26.383 73.767-38.993" transform="translate(-39.78 -38.016)" style="fill:#fff"/>
                <path data-name="패스 1596" d="M224.365 376.543a147.135 147.135 0 0 0 22.318-8.235" transform="translate(-45.829 -75.231)" style="strokeWidth:.398px;stroke:#000;stroke-miterlimit:10;fill:none"/>
                <path data-name="패스 1597" d="M228.688 385.353c16.415-4.684 32.858-9.377 48.761-15.581" transform="translate(-46.712 -75.53)" style="strokeWidth:.398px;stroke:#000;stroke-miterlimit:10;fill:none"/>
                <path data-name="패스 1598" d="M253.925 414.741a172.983 172.983 0 0 0 32.09-11.778" transform="translate(-51.867 -82.309)" style="strokeWidth:.398px;stroke:#000;stroke-miterlimit:10;fill:none"/>
                <path data-name="패스 1599" d="M234.379 396.41a50.831 50.831 0 0 0 15.406-4.592" transform="translate(-47.874 -80.033)" style="strokeWidth:.398px;stroke:#000;stroke-miterlimit:10;fill:none"/>
                <path data-name="패스 1600" d="M131.336 28.943c2.3.292 4.561-.911 6.255-2.5a14.479 14.479 0 0 0 4.312-7.894 1.124 1.124 0 0 0-.029-.7c-.244-.487-.972-.393-1.455-.142a4.279 4.279 0 0 0-2.332 3.725 3.521 3.521 0 0 0 2.662 3.353 3 3 0 0 0 3.467-2.274l1 3.018 3.863-1.548a1.5 1.5 0 0 1 .782-.159 2.5 2.5 0 0 1 .89.532 1.954 1.954 0 0 0 2.81-1" transform="translate(-26.827 -3.575)" style="strokeWidth:.398px;stroke:#000;stroke-miterlimit:10;fill:none"/>
                <path data-name="패스 1601" d="M162.372 19.814c.653 1.219 2.008 1.911 2.77 3.066s.279 3.282-1.094 3.114" transform="translate(-33.166 -4.047)" style="strokeWidth:.398px;stroke:#000;stroke-miterlimit:10;fill:none"/>
                <path data-name="패스 1602" d="M126.633 25.674a2.209 2.209 0 0 0 .722 4.137" transform="translate(-25.627 -5.244)" style="strokeWidth:.398px;stroke:#000;stroke-miterlimit:10;fill:none"/>
                <path data-name="패스 1603" d="M83.784 150.988a11.758 11.758 0 0 0 6.247 1.318" transform="translate(-17.114 -30.841)" style="strokeWidth:.398px;stroke:#000;stroke-miterlimit:10;fill:none"/>
                <path data-name="패스 1604" d="M87.5 156.252a108.741 108.741 0 0 0 43.408 44.682" transform="translate(-17.873 -31.916)" style="strokeWidth:.398px;stroke:#000;stroke-miterlimit:10;fill:none"/>
                <path data-name="패스 1605" d="M41.438 70.676A427.892 427.892 0 0 0 99.714 60.5" transform="translate(-8.464 -12.358)" style="strokeWidth:.398px;stroke:#000;stroke-miterlimit:10;fill:none"/>
                <path data-name="패스 1606" d="m222.882 362.945 61.018-21.163" transform="translate(-45.526 -69.813)" style="strokeWidth:.398px;stroke:#000;stroke-miterlimit:10;fill:none"/>
            </g>
        </g>
        <g data-name="그룹 441" style="clip-path:url(#fbt5v5ez3f)" transform="translate(400.854 74.994)">
            <g data-name="그룹 440">
                <g data-name="그룹 439" style="clip-path:url(#fbt5v5ez3f)">
                    <path data-name="패스 886" d="M14.683 33.271a8.074 8.074 0 0 0 2.482 2.1 6.482 6.482 0 0 0 3.129.755 6.062 6.062 0 0 0 1.7-.243 4.038 4.038 0 0 0 1.457-.754 2.234 2.234 0 0 0 .782-1.322 1.571 1.571 0 0 0-.431-1.673 7.75 7.75 0 0 0-2.131-1.267q-1.43-.62-3.371-1.376a18.469 18.469 0 0 1-3.21-1.807 14.151 14.151 0 0 1-2.859-2.643 10.714 10.714 0 0 1-1.914-3.507 10.009 10.009 0 0 1-.324-4.451 11.105 11.105 0 0 1 2.966-6.258 15.571 15.571 0 0 1 5.908-3.83 19.821 19.821 0 0 1 7.256-1.241 15.478 15.478 0 0 1 6.258 1.161 13.5 13.5 0 0 1 4.451 3.074q.445.473.839.969a3.187 3.187 0 0 1-1.037 4.808l-3.7 1.917a3.344 3.344 0 0 1-3.905-.609l-.016-.016a5.6 5.6 0 0 0-1.7-1.188 5.033 5.033 0 0 0-2.051-.4 5.991 5.991 0 0 0-1.456.189 3.587 3.587 0 0 0-1.3.593 1.839 1.839 0 0 0-.7 1.052 1.557 1.557 0 0 0 .431 1.538 5.693 5.693 0 0 0 1.781 1.187 20.364 20.364 0 0 0 2.455.916q1.321.4 2.4.836a13.159 13.159 0 0 1 4.64 2.779 10.022 10.022 0 0 1 2.616 4.046 11.066 11.066 0 0 1 .405 5.1 12.529 12.529 0 0 1-3.158 6.874 16.512 16.512 0 0 1-6.2 4.207 20.565 20.565 0 0 1-7.579 1.43 18.606 18.606 0 0 1-6.825-1.322 15.155 15.155 0 0 1-5.317-3.585 14.636 14.636 0 0 1-1.531-1.893 3.763 3.763 0 0 1 1-5.253l2.675-1.784a3.779 3.779 0 0 1 5.062.863.522.522 0 0 1 .022.027"/>
                    <path data-name="패스 887" d="m56.145 6.837-4.261 24.276a7.4 7.4 0 0 0 .081 2.454 3.263 3.263 0 0 0 1.051 1.858 3.631 3.631 0 0 0 2.32.755 4.947 4.947 0 0 0 2.751-.646 5.509 5.509 0 0 0 1.911-1.885 7.671 7.671 0 0 0 1-2.589l4.21-24.223h11.653l-4.263 25.355a16 16 0 0 1-9.954 12.948 22.021 22.021 0 0 1-8.5 1.618 18 18 0 0 1-7.822-1.618 10.865 10.865 0 0 1-5.1-4.856 13.371 13.371 0 0 1-1.051-8.092l4.267-25.355z"/>
                    <path data-name="패스 888" d="M121.407 6.837h13.507l-20.1 37.031a1.839 1.839 0 0 1-3.319-.1l-7.329-15.41L91.981 44.15a1.85 1.85 0 0 1-3.285-.754L79.657 6.837h13.1l2.353 17.964 8.475-13.812a3.263 3.263 0 0 1 5.962.826l4.034 13.147z"/>
                    <path data-name="패스 889" d="m197.913 7.812-14.377 15.609a4.446 4.446 0 0 0-.6 5.09l9.322 17.063H179.45l-9.108-16.839a5.007 5.007 0 0 1 .667-5.7L184.9 7.812z" transform="translate(-21.179 -.975)" style="fill:#336af8"/>
                    <path data-name="패스 890" d="m193.313 6.837-6.474 37.764h-11.977l6.474-37.764z"/>
                    <path data-name="패스 891" d="m148.728 6.837-6.474 37.764h-11.977l6.474-37.764z"/>
                </g>
            </g>
        </g>
    </g>
</svg>
