<svg xmlns="http://www.w3.org/2000/svg" width="82" height="34" viewBox="0 0 82 34">
    <path d="M10 0h62a10 10 0 0 1 10 10v14a10 10 0 0 1-10 10H10A10 10 0 0 1 0 24V10A10 10 0 0 1 10 0z" style="fill:#3dd3c4"/>
    <text transform="translate(35 24)" style="font-size:18px;font-family:NotoSansCJKkr-Regular,Noto Sans CJK KR;letter-spacing:.018em;fill:#fff"><tspan x="0" y="0">쓰기</tspan></text>
    <g data-name="그룹 275" transform="translate(-1535.185 -643.326)">
        <path data-name="다각형 14" d="M2.536.826a1 1 0 0 1 1.487 0l1.033 1.148a1 1 0 0 1-.743 1.669H2.245A1 1 0 0 1 1.5 1.974z" transform="rotate(-131.99 923.727 -9.25)" style="fill:#fff"/>
        <rect data-name="사각형 105" width="5.101" height="19.674" rx="1" transform="rotate(48.01 51.484 2080.296)" style="fill:#fff"/>
    </g>
</svg>
