<svg xmlns="http://www.w3.org/2000/svg" width="24" height="24" viewBox="0 0 24 24">
  <g id="icon_search_24" transform="translate(-1494 -320)">
    <rect id="사각형_33" data-name="사각형 33" width="24" height="24" transform="translate(1494 320)" fill="rgba(255,255,255,0)"/>
    <path id="Icon_metro-search" data-name="Icon metro-search" d="M19.818,17.184,15.392,13.42a1.975,1.975,0,0,0-1.342-.582,7.007,7.007,0,1,0-.784.784,1.975,1.975,0,0,0,.582,1.342l3.764,4.425a1.57,1.57,0,1,0,2.205-2.205ZM8.72,12.962a4.671,4.671,0,1,1,4.671-4.671A4.671,4.671,0,0,1,8.72,12.962Z" transform="translate(1495.286 321.715)" fill="#03dac5"/>
  </g>
</svg>
