<svg xmlns="http://www.w3.org/2000/svg" width="18" height="18" viewBox="0 0 18 18">
    <path data-name="패스 626" d="M0 0h18v18H0z" style="fill:transparent"/>
    <g data-name="그룹 214">
        <path data-name="패스 604" d="M13.672 16.791a.75.75 0 0 1-.349-.086L9.5 14.695 5.677 16.7a.75.75 0 0 1-1.088-.79l.73-4.257-3.093-3.01a.75.75 0 0 1 .416-1.279l4.274-.621L8.828 2.87a.78.78 0 0 1 1.345 0l1.912 3.873 4.274.621a.75.75 0 0 1 .416 1.279l-3.093 3.015.73 4.257a.75.75 0 0 1-.739.877z" transform="translate(-.5 -.985)" style="fill:#e0e0e0"/>
    </g>
</svg>
