<svg xmlns="http://www.w3.org/2000/svg" width="24" height="24" viewBox="0 0 36 36">
  <g id="icon_color_thumbs_36" transform="translate(-5732 500)">
    <rect id="사각형_26" data-name="사각형 26" width="36" height="36" transform="translate(5732 -500)" fill="rgba(255,255,255,0)"/>
    <g id="그룹_37" data-name="그룹 37" transform="translate(5735 -496)">
      <path id="패스_592" data-name="패스 592" d="M171.875,68.289h-8.4a.971.971,0,0,1-.494-1.807c3.658-2.162,5.558-4.683,5.809-7.708a2.087,2.087,0,0,1,2.084-1.875,4.1,4.1,0,0,1,4.038,4.1h0v.326a10.73,10.73,0,0,1-2.232,6.527A.969.969,0,0,1,171.875,68.289Z" transform="translate(-152.326 -56.899)" fill="#c8fff4"/>
      <path id="패스_593" data-name="패스 593" d="M144.987,156.582a3.045,3.045,0,0,0-3.042-3.042H126.3a.972.972,0,0,0-.494.135c-1.1.65-2.207,1.184-3.1,1.614-.311.15-.6.291-.871.425a.971.971,0,0,0-.537.868v12.425a.971.971,0,0,0,.537.868c3.922,1.961,7.183,2.2,10.985,2.2.589,0,1.191-.006,1.81-.011.685-.006,1.393-.013,2.135-.013h3.069a3.041,3.041,0,0,0,2.619-4.587,3.039,3.039,0,0,0,1.035-4.142,3.038,3.038,0,0,0,.662-4.646A3.02,3.02,0,0,0,144.987,156.582Z" transform="translate(-115.149 -144.091)" fill="#70efde"/>
      <path id="패스_594" data-name="패스 594" d="M43.758,153.54H37.211a.888.888,0,0,0-.767.971v16.567a.908.908,0,0,0,.767.983h4.91a2.453,2.453,0,0,0,2.151-1.7,3.683,3.683,0,0,0,.253-1.357v-14.5A.888.888,0,0,0,43.758,153.54Z" transform="translate(-36.444 -144.091)" fill="#6200ee"/>
    </g>
    <circle id="타원_5" data-name="타원 5" cx="1.726" cy="1.726" r="1.726" transform="translate(5736.729 -473.196)" fill="#dbb2ff"/>
  </g>
</svg>
