<svg xmlns="http://www.w3.org/2000/svg" width="144" height="37.605" viewBox="0 0 144 37.605">
    <defs>
        <clipPath id="ml00jki38a">
            <path data-name="사각형 204" style="fill:none" d="M0 0h144v37.605H0z"/>
        </clipPath>
    </defs>
    <g data-name="그룹 441" style="clip-path:url(#ml00jki38a)">
        <g data-name="그룹 440">
            <g data-name="그룹 439" style="clip-path:url(#ml00jki38a)">
                <path data-name="패스 886" d="M10.617 24.058a5.838 5.838 0 0 0 1.795 1.521 4.687 4.687 0 0 0 2.262.546 4.383 4.383 0 0 0 1.228-.176 2.92 2.92 0 0 0 1.054-.546 1.615 1.615 0 0 0 .565-.956 1.136 1.136 0 0 0-.312-1.209 5.6 5.6 0 0 0-1.541-.916q-1.034-.448-2.438-.995a13.354 13.354 0 0 1-2.321-1.307 10.233 10.233 0 0 1-2.068-1.911 7.747 7.747 0 0 1-1.384-2.536 7.237 7.237 0 0 1-.234-3.218A8.03 8.03 0 0 1 9.368 7.83a11.259 11.259 0 0 1 4.272-2.769 14.333 14.333 0 0 1 5.246-.9A11.192 11.192 0 0 1 23.411 5a9.76 9.76 0 0 1 3.22 2.225q.322.342.607.7a2.3 2.3 0 0 1-.75 3.476l-2.679 1.385a2.418 2.418 0 0 1-2.824-.44l-.011-.011a4.05 4.05 0 0 0-1.228-.859 3.639 3.639 0 0 0-1.483-.292 4.332 4.332 0 0 0-1.053.137 2.594 2.594 0 0 0-.937.429 1.33 1.33 0 0 0-.507.761 1.126 1.126 0 0 0 .312 1.112 4.117 4.117 0 0 0 1.288.858 14.725 14.725 0 0 0 1.775.663q.955.292 1.735.6a9.515 9.515 0 0 1 3.355 2.009 7.246 7.246 0 0 1 1.892 2.933 8 8 0 0 1 .293 3.686 9.06 9.06 0 0 1-2.282 4.974 11.939 11.939 0 0 1-4.486 3.04 14.87 14.87 0 0 1-5.481 1.034 13.454 13.454 0 0 1-4.935-.956 10.959 10.959 0 0 1-3.841-2.594 10.583 10.583 0 0 1-1.107-1.369 2.721 2.721 0 0 1 .724-3.8l1.933-1.287a2.733 2.733 0 0 1 3.66.624l.016.02"/>
                <path data-name="패스 887" d="m40.598 4.944-3.082 17.554a5.351 5.351 0 0 0 .058 1.775 2.36 2.36 0 0 0 .761 1.345 2.625 2.625 0 0 0 1.678.546 3.577 3.577 0 0 0 1.989-.467 3.984 3.984 0 0 0 1.385-1.365 5.547 5.547 0 0 0 .721-1.872l3.043-17.516h8.426l-3.081 18.334a11.569 11.569 0 0 1-7.2 9.363 15.923 15.923 0 0 1-6.144 1.17 13.014 13.014 0 0 1-5.656-1.17 7.856 7.856 0 0 1-3.685-3.509 9.669 9.669 0 0 1-.76-5.851l3.081-18.337z"/>
                <path data-name="패스 888" d="M87.786 4.944h9.767L83.019 31.721a1.33 1.33 0 0 1-2.4-.07l-5.3-11.143-8.809 11.416a1.338 1.338 0 0 1-2.375-.545L57.599 4.944h9.471l1.7 12.99 6.128-9.987a2.359 2.359 0 0 1 4.311.6l2.917 9.506z"/>
                <path data-name="패스 889" d="M190.113 7.812 179.717 19.1a3.215 3.215 0 0 0-.43 3.681l6.741 12.338h-9.265l-6.586-12.176a3.621 3.621 0 0 1 .482-4.122L180.7 7.812z" transform="translate(-62.319 -2.868)" style="fill:#336af8"/>
                <path data-name="패스 890" d="M139.781 4.944 135.1 32.25h-8.66l4.681-27.306z"/>
                <path data-name="패스 891" d="m107.543 4.944-4.681 27.306h-8.66l4.681-27.306z"/>
            </g>
        </g>
    </g>
</svg>
